<?xml version="1.0" encoding="UTF-8"?>
<svg xmlns="http://www.w3.org/2000/svg" xmlns:xlink="http://www.w3.org/1999/xlink" width="1200px" height="469px" viewBox="0 0 1200 469" version="1.1">
<g id="surface1">
<path style=" stroke:none;fill-rule:nonzero;fill:rgb(0%,0%,0%);fill-opacity:1;" d="M 822.984375 41.480469 L 822.71875 38.910156 L 818.550781 39.265625 L 818.816406 41.835938 Z M 850.988281 108.839844 L 851.078125 110.257812 L 854.003906 109.996094 C 853.914062 109.109375 854.269531 107.691406 854.890625 105.917969 L 854.621094 103.347656 C 853.382812 103.4375 852.140625 105.296875 850.988281 108.839844 Z M 741.710938 193.664062 C 741.535156 191.269531 734.089844 181.964844 719.378906 165.566406 C 719.113281 162.554688 724.164062 158.035156 734.535156 152.097656 L 764.136719 126.304688 C 770.78125 117.882812 774.683594 104.234375 775.835938 85.265625 L 775.480469 80.921875 C 774.328125 67.804688 764.84375 57.257812 746.855469 49.191406 C 736.21875 42.011719 717.074219 38.023438 689.421875 37.316406 C 666.558594 39.265625 636.691406 47.417969 599.910156 61.867188 C 589.808594 69.136719 578.289062 76.402344 565.347656 83.667969 L 565.523438 85.886719 C 566.324219 85.796875 567.5625 85.355469 568.980469 84.378906 C 570.488281 84.203125 571.375 84.910156 571.460938 86.328125 L 573.675781 85.175781 L 574.742188 85.085938 L 574.832031 86.0625 C 574.917969 87.214844 566.941406 93.507812 550.8125 104.765625 L 552.054688 107.070312 L 550.988281 107.160156 L 548.328125 106.183594 C 548.417969 106.980469 547.269531 107.511719 545.050781 107.691406 L 545.140625 108.664062 L 547.710938 111.855469 C 546.914062 111.945312 545.671875 111.589844 543.988281 110.96875 C 540.265625 111.324219 536.632812 113.273438 533 116.996094 L 534.507812 110.4375 C 539.910156 87.128906 543.632812 66.472656 545.582031 48.570312 L 545.316406 47.417969 C 541.597656 45.023438 537.960938 41.65625 534.59375 37.402344 C 534.683594 34.65625 534.683594 33.0625 534.59375 32.707031 L 534.328125 31.730469 L 533.265625 31.996094 C 521.566406 49.546875 499.054688 79.503906 465.640625 121.871094 C 440.207031 152.007812 427.089844 168.757812 426.292969 172.128906 C 415.925781 182.851562 410.960938 189.324219 411.492188 191.539062 C 408.746094 193.308594 407.59375 195.082031 408.035156 197.03125 C 407.238281 197.210938 406.707031 196.945312 406.527344 196.144531 C 402.097656 203.324219 395.539062 207.933594 386.765625 209.972656 L 377.546875 212.101562 C 376.308594 212.367188 375.6875 213.253906 375.777344 214.757812 L 376.039062 215.914062 L 379.496094 215.113281 L 379.765625 216.089844 L 371.964844 219.101562 L 358.140625 222.292969 L 350.871094 222.734375 C 349.808594 223.800781 356.632812 222.648438 353.972656 223.269531 L 344.933594 225.398438 C 339.4375 226.636719 336.425781 226.195312 335.894531 223.976562 L 334.832031 224.242188 C 335.007812 225.21875 335.09375 225.929688 334.917969 226.546875 L 334.386719 224.332031 L 327.121094 226.015625 C 326.585938 222.648438 316.75 210.417969 297.695312 189.324219 C 297.34375 185.246094 304.074219 179.304688 317.816406 171.597656 L 356.632812 137.46875 C 365.316406 126.304688 370.457031 108.398438 372.144531 83.757812 L 371.609375 77.996094 C 370.105469 60.625 357.519531 46.621094 333.855469 35.808594 C 319.851562 26.324219 294.683594 21.269531 258.347656 20.472656 C 228.214844 23.046875 188.863281 33.769531 140.472656 52.472656 C 127.179688 62.132812 112.023438 71.703125 95.007812 81.1875 L 95.273438 84.203125 C 96.425781 84.113281 97.929688 83.492188 99.792969 82.429688 C 101.742188 82.25 102.804688 83.136719 102.984375 84.910156 L 105.996094 83.226562 L 107.503906 83.136719 L 107.59375 84.554688 C 107.679688 85.972656 97.132812 94.21875 75.777344 109.285156 L 77.457031 111.945312 L 75.953125 112.035156 L 72.671875 110.878906 C 72.761719 111.765625 71.253906 112.386719 68.152344 112.652344 L 68.328125 114.25 L 71.875 118.148438 C 70.726562 118.238281 69.128906 117.882812 67.089844 117.175781 C 60.179688 117.796875 53.441406 122.757812 46.796875 132.152344 L 48.476562 134.8125 C 54.238281 129.492188 57.605469 126.835938 58.582031 126.746094 L 58.9375 131.089844 C 57.960938 131.179688 56.453125 131.796875 54.417969 132.863281 L 58.050781 138.359375 C 64.914062 130.9375 72.683594 124.417969 81.183594 118.945312 C 85.347656 120.011719 87.5625 121.339844 87.652344 122.757812 L 90.839844 122.492188 C 113.707031 105.5625 136.308594 93.332031 158.730469 85.796875 L 158.996094 88.808594 C 154.832031 95.015625 151.996094 98.207031 150.488281 98.382812 C 150.664062 100.511719 151.375 102.371094 152.703125 103.96875 C 153.058594 107.78125 142.867188 133.484375 122.214844 180.992188 C 75.332031 291.429688 35.980469 373.148438 3.988281 425.976562 C 4.074219 427.039062 4.695312 428.457031 5.851562 430.230469 C 13.738281 428.367188 18.699219 426.417969 20.828125 424.554688 L 22.511719 424.378906 L 22.777344 427.394531 L 25.703125 427.125 L 28.714844 425.441406 C 28.804688 426.328125 29.78125 426.773438 31.816406 426.59375 L 32.082031 429.609375 C 32.347656 432.535156 30.664062 436.964844 27.121094 443.082031 C 23.929688 446.714844 20.472656 454.335938 16.839844 465.949219 L 16.925781 467.367188 L 19.851562 467.101562 C 32.617188 452.828125 42.273438 438.824219 48.921875 425.175781 C 86.144531 414.273438 114.507812 403.550781 134.179688 393.003906 C 153.945312 391.316406 169.011719 386.089844 179.292969 377.492188 L 179.113281 375.898438 L 171.671875 378.113281 L 169.984375 378.289062 L 169.808594 376.695312 C 184.34375 374.480469 194.359375 371.285156 199.941406 366.855469 C 228.214844 345.050781 249.570312 329.628906 264.019531 320.5 C 293.707031 298.695312 313.027344 277.421875 321.800781 256.773438 C 323.460938 256.410156 325.117188 256.027344 326.765625 255.621094 C 330.929688 255.445312 333.234375 255.355469 333.855469 255.175781 C 333.675781 254.378906 334.035156 253.9375 334.832031 253.757812 C 341.476562 253.050781 338.289062 254.203125 342.542969 253.226562 L 353.707031 250.65625 C 353 250.832031 352.730469 251.1875 352.910156 251.898438 L 354.59375 250.832031 C 354.238281 250.832031 353.972656 250.746094 353.707031 250.65625 L 355.566406 250.214844 L 354.683594 250.746094 C 355.925781 250.921875 357.253906 250.832031 358.761719 250.480469 L 359.558594 253.757812 L 308.773438 334.503906 L 297.519531 348.597656 L 292.023438 367.03125 L 293.089844 366.765625 L 298.582031 364.464844 L 296.808594 371.644531 L 297.34375 373.769531 L 298.847656 375.628906 C 298.140625 375.808594 297.875 376.25 298.050781 377.046875 L 298.316406 378.199219 L 300.621094 377.667969 C 303.988281 374.742188 305.40625 372.085938 304.875 369.691406 C 308.507812 370.3125 310.902344 370.578125 312.144531 370.222656 L 312.40625 371.375 C 310.191406 371.90625 309.039062 373.679688 308.863281 376.695312 L 309.128906 377.847656 L 310.367188 377.578125 C 328.804688 357.460938 374.003906 288.59375 410.253906 241.882812 C 409.097656 236.832031 427.976562 229.828125 466.972656 220.785156 L 468.214844 220.519531 C 469.632812 226.636719 466.617188 241.4375 459.171875 264.925781 C 454.386719 279.109375 452.082031 286.910156 452.4375 288.148438 C 446.234375 307.027344 443.308594 317.222656 443.664062 318.816406 L 429.835938 364.105469 C 420.886719 387.332031 414.0625 411.707031 409.277344 437.410156 C 410.074219 437.230469 411.3125 437.320312 413.089844 437.761719 L 415.035156 436.078125 C 415.214844 436.878906 415.746094 437.140625 416.542969 436.964844 L 415.746094 433.683594 L 421.773438 433.507812 C 423.542969 433.066406 425.050781 430.847656 426.292969 426.773438 C 426.027344 420.65625 427.269531 417.378906 430.015625 416.667969 C 433.738281 402.132812 436.039062 394.863281 436.839844 394.597656 C 440.292969 380.152344 442.867188 371.90625 444.546875 369.867188 C 449.78125 351.078125 453.589844 341.417969 456.070312 340.796875 L 456.601562 343.101562 L 452.792969 352.941406 C 446.144531 382.457031 439.410156 405.765625 432.585938 422.871094 L 434.535156 431.378906 L 435.777344 431.117188 C 452.257812 395.660156 476.011719 325.464844 506.941406 220.519531 C 507.828125 211.300781 512.257812 204.121094 520.148438 199.070312 L 518.375 197.210938 L 518.109375 196.234375 C 521.65625 195.4375 524.136719 194.019531 525.554688 192.070312 C 525.378906 191.269531 522.273438 190.121094 516.25 188.523438 L 531.671875 122.402344 C 535.035156 119.390625 536.984375 117.796875 537.605469 117.796875 L 537.875 121.164062 C 537.074219 121.25 535.835938 121.691406 534.417969 122.667969 L 537.34375 126.835938 C 542.65625 121.074219 548.417969 116.109375 554.710938 111.945312 C 557.902344 112.832031 559.496094 113.894531 559.675781 114.960938 L 561.980469 114.78125 C 579.527344 101.929688 596.722656 92.710938 613.648438 87.128906 L 613.824219 89.34375 C 610.726562 94.039062 608.597656 96.433594 607.445312 96.523438 C 607.621094 98.117188 608.066406 99.535156 608.863281 100.777344 C 609.128906 103.699219 601.507812 123.199219 585.910156 159.363281 C 550.28125 243.121094 520.414062 305.078125 496.128906 345.316406 C 496.21875 346.113281 496.75 347.179688 497.726562 348.597656 C 503.664062 347.179688 507.472656 345.671875 508.980469 344.253906 L 510.042969 344.164062 L 510.222656 346.382812 L 512.703125 346.203125 L 514.917969 345.050781 C 515.007812 345.671875 515.804688 345.9375 517.3125 345.851562 L 517.488281 348.242188 C 517.667969 350.367188 516.425781 353.738281 513.675781 358.34375 C 511.109375 361.09375 508.449219 366.855469 505.613281 375.628906 L 505.703125 376.78125 L 508.003906 376.605469 C 517.667969 365.792969 525.019531 355.15625 530.074219 344.695312 C 558.34375 336.367188 579.882812 328.300781 594.769531 320.320312 C 609.925781 318.992188 621.359375 315.09375 629.160156 308.535156 L 629.070312 307.382812 L 623.308594 309.066406 L 622.070312 309.15625 L 621.980469 308.003906 C 632.96875 306.40625 640.679688 303.925781 644.84375 300.648438 C 666.292969 284.160156 682.511719 272.371094 693.5 265.460938 C 727.710938 240.550781 743.664062 216.621094 741.710938 193.664062 Z M 735.863281 195.171875 L 736.660156 204.121094 C 735.597656 206.339844 734.445312 207.492188 733.382812 207.582031 L 732.054688 192.335938 C 734.535156 193.222656 735.777344 194.105469 735.863281 195.171875 Z M 64.785156 123.023438 L 63.277344 123.109375 L 63.015625 120.363281 L 69.128906 119.832031 L 69.21875 121.25 C 68.242188 121.339844 66.734375 121.871094 64.785156 123.023438 Z M 34.917969 421.808594 C 31.375 420.214844 28.183594 419.59375 25.4375 419.859375 L 25.082031 415.515625 C 24.90625 413.832031 25.878906 412.679688 28.003906 412.234375 C 29.957031 412.058594 31.109375 413.476562 31.285156 416.3125 C 36.425781 410.019531 39.261719 406.828125 39.792969 406.742188 L 43.074219 408.070312 C 42.007812 416.933594 39.261719 421.453125 34.917969 421.808594 Z M 354.0625 87.925781 C 352.554688 88.101562 349.542969 83.40625 345.199219 74.097656 L 344.933594 71.351562 C 347.769531 71.085938 350.695312 75.691406 353.796875 85.175781 Z M 349.808594 54.863281 L 348.566406 57.789062 L 305.230469 39.707031 C 334.121094 40.683594 349.011719 45.734375 349.808594 54.863281 Z M 166.796875 212.011719 L 160.679688 212.542969 L 160.414062 209.796875 L 166.527344 209.265625 Z M 161.832031 117.617188 L 163.339844 117.527344 L 163.691406 121.871094 C 162.273438 121.960938 160.414062 124.085938 158.109375 128.164062 L 157.84375 125.152344 C 160.589844 121.871094 162.007812 119.390625 161.832031 117.617188 Z M 148.980469 147.929688 L 149.511719 153.691406 L 148.003906 153.78125 L 147.472656 148.019531 Z M 142.246094 158.742188 L 145.167969 158.476562 C 144.90625 163.261719 143.574219 165.835938 141.183594 166.011719 L 139.675781 166.097656 C 141.535156 162.910156 142.421875 160.425781 142.246094 158.742188 Z M 137.195312 173.8125 L 138.875 173.632812 L 138.964844 175.050781 L 136.21875 179.660156 L 133.292969 179.925781 L 133.203125 178.507812 C 136.128906 178.242188 137.457031 176.734375 137.195312 173.8125 Z M 132.230469 187.371094 L 131.34375 194.640625 L 129.835938 194.726562 L 129.21875 187.546875 Z M 82.511719 328.742188 C 80.5625 338.671875 78.433594 343.722656 76.21875 343.898438 L 76.128906 342.480469 C 75.597656 337.605469 77.726562 332.996094 82.511719 328.742188 Z M 73.382812 348.507812 L 73.472656 349.925781 C 73.648438 351.875 72.761719 353.03125 70.8125 353.117188 L 70.726562 351.699219 C 70.546875 350.015625 71.433594 348.949219 73.382812 348.507812 Z M 70.726562 389.546875 L 75.332031 389.101562 L 75.507812 390.699219 C 74.359375 390.785156 72.851562 391.40625 70.988281 392.472656 L 68.066406 392.734375 C 67.886719 391.230469 68.863281 390.078125 70.722656 389.546875 Z M 201.890625 349.039062 C 176.011719 361.800781 160.765625 370.488281 156.25 375.007812 C 128.242188 384.757812 114.328125 390.785156 114.59375 393.179688 C 89.691406 403.019531 73.292969 410.289062 65.40625 414.804688 C 63.546875 414.984375 60.886719 414.273438 57.34375 412.679688 C 56.898438 407.628906 59.203125 403.550781 64.074219 400.273438 C 68.417969 399.914062 72.582031 400.535156 76.574219 402.21875 C 81.183594 399.828125 89.246094 397.167969 100.679688 394.332031 L 100.414062 391.316406 L 91.199219 392.117188 C 92.347656 390.519531 101.210938 386.355469 117.871094 379.617188 L 122.480469 379.175781 L 122.570312 380.59375 C 114.683594 381.300781 110.339844 383.609375 109.363281 387.773438 C 109.542969 389.636719 110.605469 390.433594 112.554688 390.257812 C 118.492188 386.53125 121.417969 384.316406 121.328125 383.695312 C 132.585938 381.570312 163.691406 365.261719 214.652344 334.859375 L 214.917969 337.605469 C 215.007812 338.933594 210.664062 342.65625 201.890625 349.039062 Z M 123.722656 374.742188 C 131.167969 374.121094 137.546875 371.109375 142.867188 365.882812 C 144.992188 365.703125 146.144531 366.5 146.234375 368.359375 C 142.597656 368.71875 135.597656 371.730469 125.40625 377.578125 L 123.898438 377.667969 Z M 249.835938 277.867188 L 210.753906 308.800781 C 181.683594 327.859375 166.085938 337.429688 163.871094 337.605469 C 117.605469 363.046875 88.804688 376.25 77.636719 377.226562 L 75.953125 377.402344 C 77.371094 372.175781 97.929688 330.074219 137.816406 250.832031 C 155.363281 249.324219 183.015625 241.171875 220.679688 226.28125 L 229.894531 225.484375 C 248.949219 223.800781 263.21875 227.523438 272.617188 236.386719 L 273.144531 242.144531 C 266.054688 262.535156 258.257812 274.410156 249.835938 277.867188 Z M 173.441406 234.878906 L 179.734375 234.347656 L 179.820312 235.765625 L 173.53125 236.296875 Z M 261.800781 219.898438 L 266.410156 219.457031 C 270.664062 221.496094 272.878906 223.269531 273.058594 224.863281 L 273.144531 226.28125 C 269.070312 226.636719 265.257812 224.511719 261.800781 219.898438 Z M 274.296875 148.726562 C 270.222656 153.601562 259.054688 161.933594 240.796875 173.632812 C 234.769531 174.164062 212.347656 182.851562 173.53125 199.867188 C 171.589844 198.980469 169.453125 198.617188 167.328125 198.808594 L 167.058594 196.058594 C 166.617188 190.472656 169.097656 183.472656 174.59375 174.964844 C 177.605469 159.007812 180.886719 149.878906 184.519531 147.664062 L 216.871094 74.894531 C 216.511719 70.375 223.425781 66.917969 237.605469 64.523438 L 242.214844 64.082031 L 242.570312 68.25 C 256.484375 66.121094 265.167969 64.878906 268.539062 64.613281 C 294.238281 62.398438 307.621094 67.628906 308.6875 80.125 L 311.609375 79.859375 L 310.988281 72.503906 L 314.179688 72.234375 C 321.710938 76.402344 325.789062 81.453125 326.324219 87.390625 C 326.675781 91.46875 324.460938 96.523438 319.761719 102.550781 C 317.816406 102.726562 316.660156 101.308594 316.484375 98.472656 L 313.292969 98.738281 L 312.585938 107.601562 C 299.558594 127.101562 290.074219 137.117188 284.222656 137.648438 C 278.90625 145.007812 275.628906 148.640625 274.296875 148.726562 Z M 294.148438 199.691406 C 291.492188 197.917969 289.363281 197.121094 287.769531 197.210938 L 287.414062 192.867188 L 290.339844 192.601562 L 296.808594 196.414062 C 297.074219 198.449219 296.1875 199.515625 294.148438 199.691406 Z M 314.710938 224.066406 C 317.546875 225.21875 319.234375 226.457031 319.585938 227.613281 L 318.167969 227.964844 L 318.257812 228.054688 C 317.992188 228.054688 317.636719 228.144531 317.371094 228.234375 L 315.242188 229.914062 Z M 316.660156 236.296875 L 316.398438 235.144531 L 320.117188 234.257812 L 320.382812 235.414062 Z M 325.613281 246.3125 C 329.421875 245.691406 331.285156 245.429688 338.375 243.832031 L 338.640625 244.984375 L 325.167969 248.085938 C 325.347656 247.464844 325.523438 246.847656 325.613281 246.3125 Z M 338.730469 251.898438 C 333.058594 252.429688 334.296875 251.71875 325.257812 253.757812 L 324.992188 252.609375 L 336.25 248.972656 L 341.65625 247.730469 L 342.183594 249.859375 C 339.792969 250.390625 341.566406 250.390625 338.730469 251.898438 Z M 350.695312 249.0625 C 349.363281 249.414062 348.300781 248.796875 347.679688 247.289062 L 351.136719 246.488281 C 352.644531 246.136719 353.617188 246.757812 353.972656 248.265625 Z M 383.128906 214.136719 L 382.867188 212.988281 L 388.449219 211.660156 L 388.980469 213.785156 Z M 417.785156 426.683594 C 418.140625 425.085938 418.226562 423.9375 418.050781 423.136719 L 419.292969 422.871094 C 420.796875 422.519531 421.683594 423.050781 422.039062 424.46875 L 422.304688 425.617188 Z M 442.070312 223.269531 L 439.585938 222.824219 C 435.597656 224.421875 432.230469 225.574219 429.484375 226.195312 L 427.179688 226.726562 C 425.851562 227.078125 424.785156 226.546875 424.253906 225.128906 L 440.472656 221.40625 L 445.789062 218.925781 L 447.5625 220.964844 C 444.992188 221.496094 443.128906 222.292969 442.070312 223.269531 Z M 454.5625 219.277344 L 454.296875 218.128906 C 455.09375 217.949219 456.160156 217.332031 457.3125 216.179688 L 468.832031 213.519531 L 469.097656 214.671875 C 462.984375 216.179688 458.109375 217.683594 454.5625 219.277344 Z M 456.335938 195.96875 C 455.539062 196.144531 454.476562 196.855469 453.144531 197.917969 C 452.96875 197.121094 451.375 197.121094 448.359375 197.832031 C 447.828125 195.613281 456.335938 192.511719 473.972656 188.433594 L 476.453125 187.902344 L 476.984375 190.03125 C 464.578125 193.664062 457.667969 195.703125 456.335938 195.96875 Z M 487.355469 162.464844 C 486.113281 176.558594 481.152344 184.535156 472.378906 186.574219 L 472.113281 185.421875 L 464.3125 188.433594 L 460.855469 189.234375 C 459.085938 189.675781 457.488281 189.589844 456.070312 189.144531 L 455.363281 186.042969 C 455.09375 184.890625 466.351562 169.289062 489.21875 139.332031 L 491.875 139.777344 C 492.851562 143.851562 491.34375 151.386719 487.355469 162.464844 Z M 542.214844 115.488281 L 541.152344 115.578125 L 540.976562 113.363281 L 545.582031 112.917969 L 545.671875 114.070312 C 544.875 114.25 543.722656 114.691406 542.214844 115.488281 Z M 519.617188 342.480469 C 516.957031 341.238281 514.5625 340.710938 512.527344 340.886719 L 512.257812 337.515625 C 512.171875 336.367188 512.878906 335.566406 514.386719 335.125 C 515.894531 334.949219 516.78125 336.011719 516.957031 338.316406 C 520.765625 333.441406 522.894531 330.957031 523.339844 330.957031 L 525.730469 331.933594 C 524.84375 338.671875 522.804688 342.214844 519.617188 342.480469 Z M 761.921875 88.988281 C 760.765625 89.078125 758.550781 85.53125 755.09375 78.351562 L 754.917969 76.136719 C 757.132812 75.957031 759.4375 79.414062 761.742188 86.503906 Z M 758.730469 63.636719 L 757.667969 65.941406 L 724.875 52.203125 C 746.765625 52.914062 758.109375 56.726562 758.730469 63.636719 Z M 619.675781 183.03125 L 615.066406 183.472656 L 614.890625 181.253906 L 619.496094 180.902344 Z M 615.863281 111.324219 L 617.105469 111.234375 L 617.371094 114.601562 C 616.21875 114.691406 614.800781 116.289062 613.117188 119.390625 L 612.941406 117.175781 C 614.980469 114.601562 615.953125 112.652344 615.863281 111.324219 Z M 606.203125 134.371094 L 606.558594 138.710938 L 605.316406 138.800781 L 604.960938 134.457031 Z M 600.976562 142.613281 L 603.277344 142.433594 C 603.015625 146.15625 602.039062 148.105469 600.355469 148.285156 L 599.113281 148.371094 C 600.441406 145.890625 601.0625 143.941406 600.976562 142.613281 Z M 597.253906 153.957031 L 598.316406 153.867188 L 598.402344 155.019531 L 596.367188 158.566406 L 594.0625 158.742188 L 593.972656 157.589844 C 596.367188 157.414062 597.429688 156.171875 597.253906 153.957031 Z M 593.53125 164.238281 L 592.730469 169.910156 L 591.667969 170 L 591.226562 164.417969 Z M 555.6875 271.75 C 554.179688 279.195312 552.585938 283.007812 550.902344 283.183594 L 550.8125 282.210938 C 550.546875 278.488281 552.140625 274.941406 555.6875 271.75 Z M 548.6875 286.730469 L 548.773438 287.707031 C 548.949219 289.300781 548.242188 290.1875 546.648438 290.273438 L 546.558594 289.125 C 546.46875 287.96875 547.179688 287.171875 548.6875 286.730469 Z M 546.734375 317.929688 L 550.28125 317.664062 L 550.367188 318.816406 C 549.570312 318.902344 548.328125 319.347656 546.910156 320.144531 L 544.609375 320.320312 C 544.519531 319.082031 545.230469 318.285156 546.734375 317.929688 Z M 646.261719 287.171875 C 626.765625 296.835938 615.15625 303.394531 611.523438 306.761719 C 590.25 314.207031 579.707031 318.816406 579.882812 320.679688 C 561.003906 328.210938 548.597656 333.617188 542.746094 337.074219 C 541.328125 337.164062 539.289062 336.632812 536.632812 335.390625 C 536.277344 331.578125 538.050781 328.476562 541.773438 326.171875 C 545.140625 325.90625 548.328125 326.351562 551.253906 327.589844 C 554.800781 325.820312 560.914062 323.867188 569.601562 321.652344 L 569.421875 319.4375 L 562.15625 319.96875 C 563.042969 318.726562 569.867188 315.535156 582.542969 310.394531 L 586.085938 310.128906 L 586.175781 311.105469 C 580.148438 311.636719 576.78125 313.410156 576.070312 316.601562 C 576.160156 318.019531 577.046875 318.726562 578.550781 318.550781 C 582.984375 315.625 585.109375 313.941406 585.109375 313.410156 C 593.617188 311.902344 617.195312 299.492188 655.925781 276.273438 L 656.101562 278.488281 C 656.1875 279.460938 652.910156 282.296875 646.261719 287.171875 Z M 586.882812 306.671875 C 592.644531 306.140625 597.519531 303.925781 601.597656 300.027344 C 603.101562 299.847656 603.988281 300.558594 604.074219 301.976562 C 601.417969 302.242188 596.1875 304.457031 588.300781 308.710938 L 587.058594 308.800781 Z M 682.777344 233.019531 L 653.265625 256.773438 C 631.195312 271.21875 619.234375 278.488281 617.371094 278.664062 C 582.273438 297.988281 560.472656 308.003906 551.875 308.710938 L 550.636719 308.800781 C 551.699219 304.8125 567.386719 272.816406 597.695312 212.71875 C 610.902344 211.570312 631.816406 205.277344 660.53125 193.929688 L 667.710938 193.308594 C 682.15625 192.070312 692.96875 194.90625 700.058594 201.730469 L 700.414062 206.074219 C 695.007812 221.316406 689.160156 230.269531 682.777344 233.019531 Z M 624.816406 200.402344 L 629.421875 199.957031 L 629.511719 201.109375 L 624.90625 201.554688 Z M 691.90625 188.96875 L 695.453125 188.703125 C 698.730469 190.296875 700.414062 191.714844 700.503906 192.867188 L 700.589844 193.84375 C 697.488281 194.105469 694.5625 192.511719 691.90625 188.96875 Z M 701.210938 134.992188 C 698.109375 138.710938 689.691406 145.09375 675.953125 153.957031 C 671.34375 154.402344 654.328125 160.960938 624.90625 173.722656 C 623.488281 173.191406 621.890625 173.015625 620.207031 173.101562 L 620.03125 170.886719 C 619.675781 166.632812 621.535156 161.3125 625.613281 154.84375 C 627.917969 142.613281 630.488281 135.789062 633.144531 134.191406 L 657.871094 78.882812 C 657.605469 75.605469 662.835938 72.945312 673.472656 70.90625 L 677.015625 70.640625 L 677.28125 74.011719 C 687.742188 72.324219 694.296875 71.351562 696.957031 71.085938 C 716.453125 69.398438 726.648438 73.300781 727.445312 82.871094 L 729.746094 82.695312 L 729.304688 77.375 L 731.609375 77.199219 C 737.28125 80.300781 740.292969 84.027344 740.652344 88.457031 C 740.914062 91.648438 739.320312 95.546875 735.953125 100.066406 C 734.445312 100.242188 733.5625 99.183594 733.382812 96.878906 L 731.078125 97.054688 L 730.367188 103.699219 C 720.53125 118.679688 713.351562 126.394531 708.832031 126.746094 C 704.84375 132.152344 702.363281 134.902344 701.210938 134.992188 Z M 711.582031 171.859375 L 711.3125 168.492188 L 713.617188 168.316406 L 718.582031 171.328125 C 718.671875 172.746094 717.960938 173.546875 716.453125 173.722656 C 714.328125 172.394531 712.730469 171.773438 711.582031 171.859375 Z M 299.023438 387.152344 L 296.722656 387.683594 L 294.769531 389.367188 C 295.125 390.785156 296.011719 391.316406 297.519531 390.964844 C 299.023438 390.609375 299.644531 389.722656 299.292969 388.304688 Z M 290.253906 369.691406 L 290.515625 370.84375 C 292.023438 370.488281 292.644531 369.601562 292.289062 368.183594 L 292.023438 367.03125 C 290.605469 367.386719 289.984375 368.273438 290.253906 369.691406 Z M 352.644531 221.230469 L 355.304688 220.609375 L 354.769531 218.304688 L 352.113281 218.925781 Z M 1156.839844 288.769531 C 1129.894531 294.796875 1126.527344 293.730469 1120.855469 294.175781 L 1121.035156 296.390625 L 1123.515625 296.214844 L 1124.84375 296.125 L 1124.492188 295.859375 L 1127.414062 294.707031 C 1154.089844 291.78125 1157.195312 292.847656 1156.925781 289.832031 Z M 1011.757812 308.003906 L 1011.933594 310.21875 L 1012.289062 310.21875 L 1012.113281 308.003906 Z M 995.09375 249.59375 L 992.703125 248.796875 C 990.753906 254.027344 989.777344 257.125 989.867188 258.011719 L 989.957031 258.988281 C 991.816406 258.898438 993.5 255.707031 995.09375 249.59375 Z M 1162.332031 288.328125 L 1162.511719 290.542969 L 1166.410156 291.25 L 1166.234375 289.035156 Z M 978.964844 310.75 L 972.941406 310.042969 L 971.875 312.34375 L 971.964844 313.5 L 1007.855469 310.484375 L 1007.679688 308.269531 Z M 962.65625 232.132812 L 962.570312 230.980469 L 961.328125 231.070312 L 959.113281 232.488281 L 960.355469 234.613281 C 962.039062 234.4375 962.835938 233.636719 962.65625 232.132812 Z M 1179.347656 272.019531 L 1181.035156 271.839844 C 1182.007812 271.75 1182.453125 270.953125 1182.363281 269.535156 L 1181.386719 267.40625 C 1175.273438 267.9375 1172.4375 268.207031 1167.472656 270.953125 L 1167.382812 269.800781 L 1160.03125 270.511719 C 1159.851562 268.296875 1159.234375 267.140625 1158.257812 267.230469 L 1154.445312 267.585938 C 1150.015625 267.9375 1147.886719 267.761719 1145.671875 269.445312 C 1145.582031 268.648438 1145.316406 268.296875 1144.875 268.296875 L 1140.621094 268.648438 L 1138.140625 270.066406 C 1138.050781 269.269531 1137.785156 268.914062 1137.339844 268.914062 L 1135.835938 270.246094 L 1135.746094 269.09375 L 1129.808594 268.648438 L 1128.390625 268.738281 L 1128.566406 270.953125 L 1131.582031 271.75 L 1134.417969 271.574219 C 1135.390625 272.195312 1136.453125 272.371094 1137.695312 272.28125 L 1140.179688 271.042969 L 1140.265625 272.019531 C 1126.351562 275.476562 1126.4375 274.855469 1116.867188 276.449219 C 1115.804688 275.738281 1115.007812 275.386719 1114.472656 275.476562 L 1114.296875 275.652344 C 1113.234375 275.5625 1112.613281 274.855469 1112.527344 273.699219 L 1117.488281 273.082031 C 1117.84375 273.082031 1118.109375 273.4375 1120.855469 273.96875 C 1124.84375 272.019531 1125.019531 271.21875 1127.148438 271.042969 L 1126.972656 268.824219 C 1113.324219 271.484375 1118.816406 269.714844 1101.710938 271.21875 L 1100.914062 271.308594 L 1100.738281 269.09375 C 1122.71875 266.433594 1115.363281 267.9375 1122.894531 265.8125 C 1122.984375 266.609375 1123.25 266.964844 1123.691406 266.964844 C 1124.5 266.140625 1125.5625 265.609375 1126.707031 265.460938 L 1128.214844 265.371094 C 1135.921875 264.75 1138.492188 266.257812 1153.738281 262.003906 L 1153.824219 262.976562 L 1156.308594 261.734375 L 1158.613281 261.558594 C 1158.433594 259.339844 1161.800781 258.988281 1162.953125 258.898438 L 1162.777344 256.503906 C 1136.011719 261.914062 1129.011719 260.40625 1121.566406 262.535156 L 1121.476562 261.558594 C 1114.476562 262.800781 1114.210938 262.265625 1112.4375 262.355469 C 1111.90625 262.445312 1111.109375 262.886719 1110.21875 263.773438 C 1110.132812 262.976562 1109.867188 262.621094 1109.335938 262.621094 C 1109.070312 262.621094 1108.980469 262.710938 1108.890625 262.710938 L 1086.203125 266.433594 C 1086.113281 265.8125 1085.851562 265.460938 1085.316406 265.546875 C 1073.53125 268.027344 1076.722656 268.472656 1060.945312 269.890625 C 1060.234375 269.976562 1059.261719 270.332031 1058.019531 271.132812 C 1057.929688 270.511719 1057.578125 270.15625 1056.78125 270.242188 L 1047.121094 271.042969 L 1040.652344 272.636719 C 1040.5625 272.019531 1040.207031 271.664062 1039.410156 271.75 C 1035.777344 272.726562 1032.585938 273.347656 1030.015625 273.523438 L 1029.835938 273.523438 C 1028.242188 273.699219 1030.636719 273.082031 1029.394531 272.550781 L 1027.445312 273.699219 C 1024.609375 273.96875 1026.113281 273.523438 1016.367188 273.613281 C 999.261719 275.738281 1001.125 276.003906 999.261719 276.09375 L 992.878906 275.652344 C 992.96875 276.273438 992.617188 276.714844 991.90625 276.714844 C 984.636719 275.738281 980.914062 274.585938 980.828125 273.257812 C 981.800781 266.34375 983.488281 262.800781 985.878906 262.621094 L 987.121094 262.535156 L 986.054688 264.839844 L 987.296875 264.75 C 989.601562 263.507812 990.664062 262.355469 990.578125 261.292969 L 990.398438 258.898438 L 988.09375 259.078125 L 987.917969 256.863281 C 987.742188 255.175781 988.003906 253.667969 988.625 252.429688 L 993.855469 244.011719 L 994.035156 246.226562 L 996.511719 246.046875 L 996.335938 243.832031 L 994.917969 241.792969 C 996.78125 240.199219 998.199219 239.308594 999.347656 239.222656 L 999.261719 238.070312 L 995.894531 238.335938 L 995.628906 234.96875 C 1002.363281 220.964844 1005.554688 212.808594 1005.378906 210.503906 L 1007.769531 211.480469 C 1009.277344 211.390625 1009.984375 210.503906 1009.894531 208.910156 L 1007.59375 209.085938 L 1007.503906 208.113281 C 1007.339844 206.492188 1007.648438 204.863281 1008.390625 203.414062 C 1012.023438 199.605469 1013.707031 195.792969 1013.351562 191.804688 C 1014.0625 191.714844 1014.417969 192.070312 1014.507812 192.867188 C 1017.605469 191.09375 1020 186.398438 1021.773438 178.597656 C 1027.269531 168.671875 1035.066406 148.816406 1045.257812 119.125 C 1064.757812 66.652344 1063.960938 61.070312 1066.707031 48.660156 L 1064.402344 48.835938 C 1064.578125 50.433594 1064.222656 51.941406 1063.515625 53.359375 C 1061.921875 52.738281 1060.679688 52.382812 1059.792969 52.472656 L 1059.707031 51.496094 C 1059.347656 46.976562 1061.210938 41.570312 1065.464844 35.1875 L 1066.527344 35.097656 L 1068.476562 42.722656 L 1070.78125 42.546875 C 1070.695312 42.011719 1071.3125 39 1072.554688 33.414062 C 1072.46875 32.261719 1071.582031 31.554688 1069.808594 31.464844 L 1067.59375 32.882812 C 1067.417969 31.285156 1067.503906 27.121094 1067.769531 20.472656 L 1066.617188 20.5625 C 1064.667969 18.613281 1063.691406 17.015625 1063.601562 15.6875 L 1050.929688 16.929688 C 1050.839844 16.042969 1050.398438 14.714844 1049.511719 13.03125 C 1049.421875 11.875 1052.257812 10.722656 1058.109375 9.574219 L 1060.679688 10.546875 L 1063.074219 9.128906 C 1063.160156 9.925781 1063.601562 10.28125 1064.488281 10.195312 L 1066.882812 8.777344 C 1066.972656 9.574219 1067.414062 9.925781 1068.300781 9.835938 L 1069.453125 9.75 L 1069.273438 7.179688 C 1067.503906 7.359375 1062.804688 7.359375 1055.363281 7.089844 L 1052.96875 8.6875 L 1052.878906 7.269531 C 993.414062 12.140625 959.644531 14.890625 951.582031 15.6875 C 950.515625 15.777344 946.351562 15.6875 938.996094 15.511719 C 939.085938 16.484375 938.199219 17.015625 936.425781 17.195312 L 933.855469 16.042969 L 925.167969 18.257812 C 923.128906 18.433594 919.675781 18.347656 914.890625 17.816406 C 913.5625 18.878906 911.964844 19.5 910.015625 19.675781 C 908.949219 19.765625 922.6875 18.96875 935.449219 18.082031 C 934.121094 19.144531 932.082031 19.765625 929.246094 20.03125 C 927.296875 20.210938 925.613281 19.941406 924.195312 19.144531 C 922.246094 20.03125 915.953125 21.449219 905.40625 23.574219 L 902.835938 22.601562 L 861.359375 28.984375 C 859.761719 28.1875 857.902344 27.917969 855.777344 28.097656 C 853.558594 28.273438 849.835938 29.070312 844.695312 30.488281 L 824.667969 38.820312 L 826.175781 41.304688 C 827.148438 41.214844 828.566406 40.683594 830.25 39.707031 L 837.34375 40.328125 L 836.453125 46.976562 C 829.894531 49.898438 826.085938 54.242188 825.019531 59.742188 C 815.183594 64.082031 810.308594 67.183594 810.308594 69.046875 L 810.398438 70.199219 L 811.90625 70.109375 L 814.5625 68.691406 L 817.667969 72.414062 L 818.109375 77.554688 C 818.285156 79.152344 801.710938 113.984375 768.566406 182.054688 C 739.851562 247.644531 724.785156 283.539062 723.367188 290.011719 C 713.53125 292.757812 707.855469 296.746094 706.175781 302.066406 C 706.351562 303.746094 709.273438 304.902344 714.945312 305.34375 L 715.214844 307.914062 L 712.644531 312.167969 L 713.085938 317.308594 C 713.351562 319.96875 720.53125 322.007812 734.621094 323.425781 C 734.535156 322.539062 734.980469 322.007812 735.953125 321.917969 C 736.21875 325.109375 735.332031 331.3125 733.292969 340.53125 L 734.800781 340.441406 C 740.648438 332.464844 743.398438 326.96875 743.128906 323.957031 L 744.371094 323.867188 C 745.789062 323.777344 747.296875 325.375 749.070312 328.832031 C 747.296875 329.539062 741.09375 343.632812 730.457031 371.199219 L 731.964844 373.679688 L 733.472656 373.59375 C 746.5 340.621094 754.652344 322.359375 758.019531 318.902344 C 775.125 317.398438 804.726562 314.382812 846.734375 309.863281 L 849.394531 308.269531 C 849.484375 309.15625 850.015625 309.597656 850.988281 309.507812 L 853.738281 309.246094 L 856.398438 307.648438 C 856.484375 308.535156 857.015625 308.976562 857.992188 308.886719 L 889.808594 306.140625 C 898.226562 305.433594 902.214844 302.863281 901.859375 298.519531 C 901.773438 297.367188 906.734375 296.035156 916.75 294.617188 C 917.726562 294.527344 919.144531 294.796875 921.09375 295.417969 C 921.003906 294.617188 926.054688 293.820312 936.160156 292.933594 C 936.425781 287.617188 938.109375 284.78125 941.125 284.515625 L 940.855469 281.945312 C 938.019531 282.210938 934.832031 282.917969 931.109375 284.160156 C 924.460938 283.804688 920.207031 283.273438 918.433594 282.652344 C 916.660156 283.628906 915.332031 284.160156 914.359375 284.25 L 892.199219 284.957031 L 889.542969 286.375 C 889.453125 285.578125 888.921875 285.222656 887.945312 285.3125 L 886.707031 285.402344 L 883.871094 286.820312 C 883.78125 286.019531 881.476562 285.402344 876.867188 284.78125 L 874.035156 286.464844 L 868.539062 286.90625 L 868.449219 285.488281 C 896.984375 282.386719 911.078125 278.488281 910.722656 273.878906 C 912.585938 273.699219 913.5625 274.585938 913.738281 276.449219 L 922.070312 274.320312 L 921.800781 271.75 L 853.472656 273.613281 C 853.558594 274.5 853.117188 275.03125 852.144531 275.117188 L 843.8125 274.410156 C 841.683594 274.585938 839.910156 275.207031 838.492188 276.273438 L 835.390625 275.117188 C 826.796875 275.828125 820.414062 276.894531 816.160156 278.222656 C 810.308594 277.777344 803.839844 277.867188 796.660156 278.488281 L 781.328125 279.816406 L 774.238281 279.019531 C 773.886719 274.5 782.65625 252.25 800.738281 212.367188 C 805.96875 198.894531 810.753906 190.472656 815.363281 187.285156 C 816.335938 187.195312 817.753906 187.546875 819.707031 188.347656 L 830.605469 184.625 L 836.1875 185.507812 C 845.582031 184.710938 856.484375 182.054688 868.980469 177.445312 C 872.082031 177.179688 874.386719 177.355469 876.070312 178.066406 L 884.402344 176.113281 L 909.21875 173.988281 C 919.761719 173.101562 931.195312 170.796875 943.601562 166.984375 L 943.339844 164.417969 C 938.730469 164.859375 936.335938 164.0625 936.160156 162.199219 C 935.894531 158.742188 932.527344 157.324219 926.054688 157.855469 L 925.789062 155.285156 L 932.617188 153.335938 L 950.515625 151.828125 L 950.25 149.261719 C 949.542969 149.347656 945.910156 149.261719 939.171875 148.992188 L 938.90625 146.246094 L 945.820312 145.625 C 947.679688 145.449219 948.476562 144.5625 948.300781 142.789062 C 938.996094 143.054688 934.296875 142.613281 934.210938 141.371094 C 869.335938 144.5625 836.808594 145.183594 836.632812 143.144531 C 835.65625 143.230469 834.328125 143.851562 832.554688 144.917969 L 830.871094 142.257812 C 848.066406 105.742188 858.167969 87.304688 861.09375 87.039062 C 861.179688 88.457031 860.472656 90.761719 858.875 93.863281 L 858.964844 95.015625 L 861.710938 94.75 C 868.539062 78.441406 874.296875 70.019531 879.085938 69.667969 C 899.46875 67.890625 876.25 66.5625 919.851562 59.742188 C 921.625 60.539062 922.867188 60.890625 923.75 60.800781 C 940.855469 57.347656 964.695312 53.710938 995.273438 49.988281 L 995.09375 47.417969 L 978.789062 48.925781 L 978.613281 46.355469 C 980.5625 46.179688 982.15625 45.558594 983.488281 44.496094 L 983.574219 45.914062 C 984.460938 45.824219 985.703125 45.203125 987.296875 44.140625 C 990.132812 43.875 992.257812 44.140625 993.765625 44.9375 C 999.4375 43.429688 1004.046875 42.546875 1007.414062 42.1875 L 1017.605469 41.214844 C 1020.089844 39.621094 1021.238281 38.203125 1021.152344 36.871094 L 1021.0625 35.71875 C 1018.492188 35.984375 1015.566406 35.808594 1012.113281 35.1875 C 1012.023438 33.769531 1012.730469 32.792969 1014.417969 32.351562 L 1033.382812 30.578125 L 1042.070312 28.363281 C 1042.15625 29.335938 1042.601562 29.691406 1043.308594 29.691406 C 1044.195312 29.605469 1045.4375 28.984375 1047.03125 27.917969 C 1047.472656 28.007812 1048.003906 28.007812 1048.449219 28.097656 C 1047.296875 30.488281 1045.964844 33.949219 1044.636719 38.464844 L 1042.15625 38.644531 C 1041.980469 36.960938 1041.535156 35.453125 1040.738281 34.125 L 1039.496094 34.210938 C 1016.453125 98.382812 1006.175781 128.253906 984.90625 177.53125 C 981.003906 190.121094 977.726562 197.121094 974.890625 198.628906 C 974.980469 200.046875 975.863281 200.753906 977.371094 200.578125 C 977.902344 206.785156 976.484375 212.898438 973.027344 218.925781 C 963.191406 247.289062 956.632812 262.800781 953.265625 265.636719 L 955.480469 279.019531 C 955.566406 280.4375 954.859375 281.234375 953.351562 281.414062 L 951.050781 281.589844 C 950.691406 277.867188 949.363281 276.09375 946.972656 276.359375 L 945.730469 276.449219 C 942.71875 281.148438 940.414062 286.550781 938.90625 292.847656 L 941.210938 292.667969 C 944.3125 290.632812 945.730469 288.238281 945.464844 285.488281 L 950.074219 285.046875 L 952.730469 286.019531 C 950.605469 289.390625 949.632812 292.050781 949.808594 294.085938 L 951.050781 296.214844 L 948.035156 303.304688 L 948.125 304.457031 C 950.78125 304.191406 953.707031 305.078125 956.808594 306.9375 C 958.9375 306.761719 961.238281 305.785156 963.8125 304.101562 C 966.46875 303.835938 976.394531 303.746094 993.5 303.746094 L 1002.097656 300.824219 C 1012.554688 300.734375 1014.238281 301 1023.277344 300.203125 L 1027 299.847656 L 1028.949219 298.519531 L 1029.039062 299.671875 C 1038.523438 298.871094 1039.144531 299.492188 1046.585938 300.378906 L 1046.675781 301.53125 L 1041.449219 301.976562 L 1041.625 304.191406 C 1043.21875 304.015625 1044.636719 303.570312 1045.789062 302.597656 C 1047.121094 302.507812 1047.917969 303.214844 1048.003906 304.8125 C 1045.878906 304.988281 1043.488281 305.519531 1040.828125 306.40625 L 1038.523438 305.609375 C 1034.890625 306.582031 1035.6875 306.851562 1033.203125 307.027344 L 1029.570312 306.320312 C 1029.660156 306.9375 1029.304688 307.382812 1028.6875 307.382812 C 1028.773438 308.800781 1029.570312 309.507812 1030.902344 309.421875 L 1034.621094 309.066406 L 1054.03125 307.382812 L 1061.386719 305.785156 C 1061.476562 306.40625 1061.742188 306.761719 1062.363281 306.671875 L 1065.90625 305.34375 L 1072.554688 304.8125 C 1077.695312 304.367188 1077.605469 304.015625 1088.773438 302.242188 C 1088.6875 301.53125 1088.949219 301.265625 1089.484375 301.179688 L 1089.570312 302.152344 C 1107.742188 299.050781 1108.890625 298.871094 1111.816406 297.898438 L 1112.082031 298.429688 C 1116.601562 297.367188 1114.03125 297.632812 1115.273438 296.746094 C 1115.363281 297.542969 1115.628906 297.898438 1116.070312 297.898438 L 1119.261719 297.632812 L 1119.085938 295.238281 L 1112.613281 295.148438 L 1112.527344 294.972656 C 1112.257812 295.0625 1112.082031 295.0625 1111.816406 295.148438 L 1110.929688 295.148438 L 1110.929688 295.328125 C 1106.585938 296.214844 1106.5 295.59375 1103.664062 295.859375 L 1087.445312 296.746094 L 1087.355469 295.59375 L 1096.394531 294.351562 L 1099.671875 294.085938 L 1101.535156 292.757812 L 1101.625 293.910156 C 1114.386719 292.847656 1118.90625 296.035156 1177.929688 283.453125 C 1181.121094 283.183594 1180.855469 280.527344 1182.894531 275.03125 C 1181.8125 275.105469 1180.734375 274.859375 1179.792969 274.320312 C 1174.917969 276.183594 1172.347656 275.296875 1162.953125 276.804688 C 1162.15625 276.894531 1161.535156 276.183594 1161.269531 274.765625 L 1161.179688 273.789062 L 1170.21875 274.054688 C 1171.90625 273.878906 1175.183594 273.613281 1180.058594 270.863281 C 1180.058594 271.664062 1178.285156 272.105469 1179.347656 272.019531 Z M 742.953125 279.019531 L 738.789062 279.371094 C 738.613281 277.691406 740.828125 271.308594 745.433594 260.40625 L 748.183594 260.140625 C 748.273438 262.710938 746.585938 269.003906 742.953125 279.019531 Z M 748.003906 258.8125 L 747.917969 257.660156 C 747.828125 256.242188 748.714844 255.265625 750.664062 254.824219 L 750.753906 255.972656 C 750.839844 257.660156 749.957031 258.632812 748.003906 258.8125 Z M 803.398438 301.621094 L 803.488281 302.773438 L 796.574219 303.394531 L 796.484375 302.242188 Z M 795.066406 300.910156 C 795.15625 302.328125 793.027344 303.925781 788.417969 305.519531 L 779.910156 304.902344 L 777.164062 305.164062 L 776.898438 302.597656 Z M 851.078125 43.078125 L 846.910156 43.429688 L 846.824219 42.011719 C 846.734375 40.59375 847.53125 39.621094 849.304688 39.175781 L 850.8125 39.085938 L 853.648438 40.238281 C 853.738281 41.925781 852.941406 42.898438 851.078125 43.078125 Z M 914.445312 30.667969 L 915.777344 30.578125 L 915.953125 33.148438 L 912.140625 33.503906 C 912.054688 32.085938 912.761719 31.109375 914.445312 30.667969 Z M 898.492188 36.25 L 892.199219 35.542969 L 892.109375 34.390625 C 900.355469 33.679688 903.101562 32.792969 908.152344 31.375 C 908.242188 32.351562 909.128906 32.707031 910.722656 32.53125 L 910.902344 35.097656 L 908.417969 35.367188 C 906.46875 35.542969 904.785156 35.277344 903.367188 34.480469 C 901.859375 35.453125 900.265625 36.074219 898.492188 36.25 Z M 906.382812 59.207031 L 906.292969 58.054688 L 916.484375 57.078125 L 916.574219 58.234375 Z M 917.28125 50.34375 L 917.195312 48.925781 L 922.15625 48.480469 L 922.246094 49.898438 Z M 918.433594 32.972656 L 917.105469 33.0625 L 918.257812 30.3125 L 929.601562 29.25 L 929.691406 30.667969 C 926.765625 30.933594 922.953125 31.730469 918.433594 32.972656 Z M 924.195312 57.433594 L 924.015625 54.863281 L 928.980469 54.421875 C 930.664062 54.242188 931.550781 55.039062 931.640625 56.816406 Z M 954.238281 16.484375 L 947.855469 18.257812 L 946.707031 18.347656 C 943.691406 18.613281 939.792969 18.523438 935.183594 18.082031 C 943.425781 17.550781 951.3125 16.929688 954.238281 16.484375 Z M 947.414062 44.847656 L 947.503906 46 L 938.730469 46.800781 L 938.640625 45.644531 Z M 961.773438 51.671875 C 961.683594 50.609375 960 49.898438 956.542969 49.546875 L 947.769531 52.027344 L 941.035156 52.292969 C 939.527344 51.230469 938.730469 50.523438 938.640625 49.988281 L 946.441406 50.433594 L 963.988281 47.597656 L 972.941406 47.949219 L 973.027344 49.367188 C 968.597656 49.8125 964.875 50.609375 961.773438 51.671875 Z M 1052.082031 28.363281 C 1053.144531 28.449219 1053.855469 28.449219 1054.121094 28.449219 C 1057.222656 25.4375 1060.679688 23.046875 1064.667969 21.359375 C 1061.476562 35.367188 1056.511719 45.734375 1049.691406 52.472656 L 1044.726562 49.457031 C 1048.890625 38.910156 1051.375 31.90625 1052.082031 28.363281 Z M 1036.839844 54.511719 L 1038.078125 54.421875 C 1036.394531 57.613281 1034.890625 59.292969 1033.648438 59.382812 L 1033.382812 56.015625 C 1034.179688 56.015625 1035.332031 55.484375 1036.839844 54.511719 Z M 1027 77.996094 C 1029.394531 68.425781 1031.699219 63.019531 1033.824219 61.601562 L 1033.914062 62.753906 C 1032.671875 71.617188 1030.722656 76.3125 1028.152344 76.667969 L 1028.597656 82.25 C 1026.46875 85.265625 1025.492188 87.570312 1025.582031 89.34375 L 1024.34375 89.429688 L 1023.632812 81.71875 C 1025.050781 81.542969 1026.203125 80.300781 1027 77.996094 Z M 1023.191406 90.761719 C 1023.277344 92.089844 1022.394531 95.191406 1020.621094 99.980469 L 1019.378906 100.066406 L 1019.113281 96.699219 C 1020.796875 92.800781 1022.214844 90.847656 1023.191406 90.761719 Z M 951.671875 298.339844 L 951.582031 297.367188 L 953.886719 297.1875 L 954.148438 300.558594 C 952.910156 300.648438 952.023438 299.9375 951.671875 298.339844 Z M 1053.855469 301 C 1053.765625 300.203125 1053.414062 299.847656 1052.617188 299.9375 L 1046.855469 300.46875 L 1046.765625 299.316406 L 1047.296875 299.316406 L 1060.945312 298.164062 L 1061.035156 299.316406 C 1057.046875 299.492188 1054.652344 300.113281 1053.855469 301 Z M 1047.03125 298.164062 C 1047.5625 298.429688 1047.296875 298.695312 1047.03125 298.871094 C 1046.765625 298.785156 1046.410156 298.519531 1047.03125 298.164062 Z M 1047.742188 282.210938 L 1040.117188 282.832031 L 1040.03125 281.675781 L 1046.941406 281.058594 L 1052.96875 279.550781 C 1053.058594 280.257812 1053.414062 280.527344 1054.210938 280.4375 C 1061.386719 279.195312 1060.679688 278.84375 1064.136719 278.574219 C 1065.289062 278.488281 1066 279.195312 1066.085938 280.617188 Z M 1074.417969 279.90625 C 1070.164062 279.460938 1069.894531 279.109375 1066.882812 279.371094 L 1066.796875 278.398438 L 1073.617188 277.777344 L 1073.707031 278.753906 C 1073 278.84375 1075.566406 279.019531 1074.417969 279.90625 Z M 1074.949219 278.664062 L 1074.859375 277.691406 L 1078.582031 277.335938 L 1078.671875 278.3125 Z M 1083.191406 277.953125 L 1083.101562 276.980469 C 1083.722656 276.894531 1084.609375 276.449219 1085.761719 275.5625 C 1087.621094 275.386719 1088.597656 276.625 1088.773438 278.042969 Z M 1093.738281 276.625 L 1093.648438 275.476562 L 1098.167969 275.117188 L 1098.257812 276.273438 Z M 1100.03125 276.09375 C 1099.941406 274.765625 1100.472656 273.96875 1101.625 273.789062 L 1103.128906 275.738281 C 1103.042969 275.117188 1103.308594 274.765625 1103.839844 274.675781 L 1104.992188 276.804688 Z M 1033.117188 304.988281 L 1032.941406 302.773438 L 1032.230469 302.863281 L 1032.40625 305.078125 Z M 1188.835938 264.660156 C 1189.542969 264.21875 1189.894531 263.773438 1188.214844 263.507812 C 1187.414062 264.394531 1189.097656 264.660156 1187.328125 264.75 L 1187.414062 265.546875 C 1187.59375 265.371094 1188.035156 265.101562 1188.390625 264.839844 L 1187.414062 265.636719 L 1187.414062 265.722656 L 1185.554688 268.117188 L 1189.273438 266.789062 L 1189.71875 266.789062 L 1189.542969 264.570312 Z M 1195.304688 269.714844 L 1194.59375 269.800781 L 1194.769531 272.019531 L 1200 271.574219 C 1199.910156 270.15625 1196.453125 269.714844 1195.304688 269.714844 Z M 1187.238281 265.8125 L 1187.328125 265.722656 L 1187.328125 265.636719 C 1187.328125 265.636719 1187.238281 265.722656 1187.238281 265.8125 Z M 1187.238281 265.8125 "/>
<path style=" stroke:none;fill-rule:nonzero;fill:rgb(97.647059%,86.27451%,24.313725%);fill-opacity:1;" d="M 847 101.75 L 847.089844 103.167969 L 850.015625 102.902344 C 849.925781 102.019531 850.28125 100.601562 850.902344 98.824219 L 850.636719 96.257812 C 849.394531 96.347656 848.152344 98.207031 847 101.75 Z M 818.996094 34.390625 L 818.730469 31.820312 L 814.5625 32.171875 L 814.832031 34.746094 Z M 737.726562 186.574219 C 737.546875 184.179688 730.105469 174.875 715.390625 158.476562 C 715.125 155.464844 720.179688 150.941406 730.546875 145.007812 L 760.148438 119.214844 C 766.796875 110.792969 770.691406 97.144531 771.847656 78.175781 L 771.492188 73.832031 C 770.339844 60.714844 760.855469 50.167969 742.867188 42.101562 C 732.230469 34.921875 713.085938 30.933594 685.4375 30.222656 C 662.570312 32.171875 632.703125 40.328125 595.925781 54.777344 C 585.820312 62.042969 574.296875 69.3125 561.359375 76.578125 L 561.535156 78.796875 C 562.332031 78.707031 563.574219 78.265625 564.992188 77.289062 C 566.5 77.109375 567.386719 77.820312 567.472656 79.238281 L 569.691406 78.085938 L 570.753906 77.996094 L 570.839844 78.972656 C 570.929688 80.125 562.953125 86.417969 546.824219 97.675781 L 548.066406 99.980469 L 547 100.066406 L 544.34375 99.09375 C 544.433594 99.890625 543.277344 100.421875 541.0625 100.601562 L 541.152344 101.574219 L 543.722656 104.765625 C 542.925781 104.855469 541.683594 104.5 540 103.878906 C 536.277344 104.234375 532.644531 106.183594 529.011719 109.90625 L 530.515625 103.347656 C 535.925781 80.035156 539.644531 59.382812 541.597656 41.480469 L 541.328125 40.328125 C 537.605469 37.933594 533.972656 34.566406 530.605469 30.3125 C 530.695312 27.566406 530.695312 25.96875 530.605469 25.613281 L 530.339844 24.640625 L 529.277344 24.90625 C 517.578125 42.457031 495.066406 72.414062 461.65625 114.78125 C 436.21875 144.917969 423.101562 161.667969 422.304688 165.035156 C 411.933594 175.761719 406.972656 182.230469 407.503906 184.449219 C 404.757812 186.21875 403.601562 187.992188 404.046875 189.941406 C 403.25 190.121094 402.71875 189.851562 402.542969 189.054688 C 398.109375 196.234375 391.550781 200.84375 382.777344 202.882812 L 373.558594 205.007812 C 372.320312 205.277344 371.699219 206.164062 371.785156 207.667969 L 372.054688 208.820312 L 375.507812 208.023438 L 375.777344 209 L 367.976562 212.011719 L 354.148438 215.203125 L 346.882812 215.644531 C 345.820312 216.710938 352.644531 215.558594 349.984375 216.179688 L 340.945312 218.304688 C 335.453125 219.546875 332.4375 219.101562 331.90625 216.886719 L 330.839844 217.152344 C 331.019531 218.128906 331.109375 218.835938 330.929688 219.457031 L 330.398438 217.242188 L 323.128906 218.925781 C 322.601562 215.558594 312.761719 203.324219 293.707031 182.230469 C 293.351562 178.152344 300.089844 172.214844 313.824219 164.503906 L 352.644531 130.378906 C 361.328125 119.214844 366.46875 101.308594 368.152344 76.667969 L 367.621094 70.90625 C 366.113281 53.535156 353.53125 39.53125 329.867188 28.71875 C 315.863281 19.234375 290.695312 14.179688 254.359375 13.382812 C 224.222656 15.953125 184.875 26.679688 136.484375 45.382812 C 123.191406 55.039062 108.035156 64.613281 91.019531 74.097656 L 91.285156 77.109375 C 92.4375 77.023438 93.945312 76.402344 95.804688 75.339844 C 97.753906 75.160156 98.820312 76.046875 98.996094 77.820312 L 102.007812 76.136719 L 103.515625 76.046875 L 103.601562 77.464844 C 103.691406 78.882812 93.144531 87.128906 71.785156 102.195312 L 73.472656 104.855469 L 71.964844 104.941406 L 68.6875 103.789062 C 68.773438 104.675781 67.269531 105.296875 64.164062 105.5625 L 64.34375 107.160156 L 67.886719 111.058594 C 66.734375 111.148438 65.140625 110.792969 63.101562 110.082031 C 56.1875 110.703125 49.453125 115.667969 42.804688 125.0625 L 44.492188 127.722656 C 50.253906 122.402344 53.617188 119.746094 54.59375 119.65625 L 54.949219 124 C 53.972656 124.085938 52.46875 124.707031 50.429688 125.773438 L 54.0625 131.265625 C 60.925781 123.847656 68.699219 117.328125 77.195312 111.855469 C 81.359375 112.917969 83.574219 114.25 83.664062 115.667969 L 86.855469 115.402344 C 109.71875 98.472656 132.320312 86.242188 154.742188 78.707031 L 155.007812 81.71875 C 150.839844 87.925781 148.003906 91.117188 146.5 91.292969 C 146.675781 93.421875 147.386719 95.28125 148.714844 96.878906 C 149.070312 100.6875 138.875 126.394531 118.226562 173.898438 C 71.34375 284.335938 31.996094 366.058594 0 418.882812 C 0.0898438 419.945312 0.710938 421.363281 1.859375 423.136719 C 9.75 421.277344 14.710938 419.328125 16.839844 417.464844 L 18.523438 417.289062 L 18.789062 420.300781 L 21.710938 420.035156 L 24.726562 418.351562 C 24.816406 419.238281 25.789062 419.683594 27.828125 419.503906 L 28.09375 422.519531 C 28.359375 425.441406 26.675781 429.875 23.128906 435.988281 C 19.941406 439.625 16.484375 447.246094 12.851562 458.859375 L 12.941406 460.273438 L 15.863281 460.007812 C 28.625 445.738281 38.289062 431.734375 44.933594 418.085938 C 82.15625 407.183594 110.515625 396.457031 130.191406 385.914062 C 149.957031 384.226562 165.019531 378.996094 175.304688 370.398438 L 175.125 368.804688 L 167.679688 371.023438 L 165.996094 371.199219 L 165.820312 369.601562 C 180.355469 367.386719 190.367188 364.195312 195.953125 359.765625 C 224.222656 337.960938 245.582031 322.539062 260.03125 313.410156 C 289.71875 291.605469 309.039062 270.332031 317.816406 249.683594 C 319.410156 249.324219 321.003906 248.972656 322.777344 248.527344 C 326.941406 248.351562 329.246094 248.265625 329.867188 248.085938 C 329.691406 247.289062 330.042969 246.847656 330.839844 246.667969 C 337.488281 245.960938 334.296875 247.109375 338.550781 246.136719 L 349.71875 243.566406 L 351.582031 243.121094 L 350.695312 243.652344 C 351.933594 243.832031 353.265625 243.742188 354.769531 243.390625 L 355.566406 246.667969 L 304.785156 327.414062 L 293.53125 341.507812 L 288.035156 359.941406 L 289.097656 359.675781 L 294.59375 357.371094 L 292.820312 364.550781 L 293.351562 366.679688 L 294.859375 368.539062 C 294.148438 368.71875 293.886719 369.160156 294.0625 369.957031 L 294.328125 371.109375 L 296.632812 370.578125 C 300 367.652344 301.417969 364.996094 300.886719 362.601562 C 304.519531 363.222656 306.910156 363.488281 308.152344 363.132812 L 308.417969 364.285156 C 306.203125 364.816406 305.050781 366.589844 304.875 369.601562 L 305.140625 370.753906 L 306.382812 370.488281 C 324.816406 350.367188 370.015625 281.5 406.261719 234.792969 C 405.109375 229.738281 423.988281 222.734375 462.984375 213.695312 L 464.222656 213.429688 C 465.640625 219.546875 462.628906 234.347656 455.183594 257.835938 C 450.398438 272.019531 448.09375 279.816406 448.449219 281.058594 C 442.246094 299.9375 439.320312 310.128906 439.675781 311.722656 L 425.851562 357.015625 C 416.898438 380.242188 410.074219 404.613281 405.289062 430.316406 C 406.085938 430.140625 407.328125 430.230469 409.097656 430.671875 L 411.050781 428.988281 C 411.226562 429.785156 411.757812 430.050781 412.554688 429.875 L 411.757812 426.59375 L 417.785156 426.417969 C 419.558594 425.976562 421.0625 423.757812 422.304688 419.683594 C 422.039062 413.566406 423.277344 410.289062 426.027344 409.578125 C 429.746094 395.042969 432.054688 387.773438 432.851562 387.507812 C 436.308594 373.0625 438.875 364.816406 440.5625 362.777344 C 445.789062 343.988281 449.601562 334.328125 452.082031 333.707031 L 452.617188 336.011719 L 448.804688 345.851562 C 442.15625 375.363281 435.421875 398.675781 428.597656 415.78125 L 430.546875 424.289062 L 431.785156 424.023438 C 448.273438 388.570312 472.023438 318.371094 502.953125 213.429688 C 503.839844 204.210938 508.273438 197.03125 516.160156 191.980469 L 514.386719 190.121094 L 514.121094 189.144531 C 517.667969 188.347656 520.148438 186.929688 521.566406 184.980469 C 521.386719 184.179688 518.289062 183.03125 512.257812 181.433594 L 527.679688 115.3125 C 531.050781 112.296875 533 110.703125 533.617188 110.703125 L 533.886719 114.070312 C 533.089844 114.160156 531.847656 114.601562 530.429688 115.578125 L 533.351562 119.746094 C 538.671875 113.984375 544.433594 109.019531 550.722656 104.855469 C 553.914062 105.742188 555.507812 106.804688 555.6875 107.867188 L 557.992188 107.691406 C 575.539062 94.839844 592.730469 85.621094 609.660156 80.035156 L 609.835938 82.25 C 606.734375 86.949219 604.609375 89.34375 603.457031 89.429688 C 603.632812 91.027344 604.074219 92.445312 604.875 93.683594 C 605.140625 96.609375 597.519531 116.109375 581.921875 152.273438 C 546.292969 236.03125 516.425781 297.988281 492.140625 338.226562 C 492.230469 339.023438 492.761719 340.089844 493.738281 341.507812 C 499.675781 340.089844 503.488281 338.582031 504.992188 337.164062 L 506.054688 337.074219 L 506.234375 339.289062 L 508.714844 339.113281 L 510.929688 337.960938 C 511.019531 338.582031 511.816406 338.847656 513.324219 338.757812 L 513.5 341.152344 C 513.675781 343.277344 512.4375 346.648438 509.691406 351.253906 C 507.121094 354.003906 504.460938 359.765625 501.625 368.539062 L 501.710938 369.691406 L 504.019531 369.515625 C 513.675781 358.703125 521.035156 348.066406 526.085938 337.605469 C 554.359375 329.277344 575.894531 321.207031 590.78125 313.230469 C 605.9375 311.902344 617.371094 308.003906 625.167969 301.445312 L 625.082031 300.289062 L 619.320312 301.976562 L 618.078125 302.066406 L 617.992188 300.910156 C 628.980469 299.316406 636.691406 296.835938 640.855469 293.554688 C 662.304688 277.070312 678.523438 265.28125 689.511719 258.367188 C 723.722656 233.460938 739.675781 209.53125 737.726562 186.574219 Z M 731.875 188.082031 L 732.671875 197.03125 C 731.609375 199.25 730.457031 200.402344 729.394531 200.488281 L 728.066406 185.246094 C 730.546875 186.128906 731.785156 187.015625 731.875 188.082031 Z M 60.796875 115.933594 L 59.292969 116.019531 L 59.023438 113.273438 L 65.140625 112.742188 L 65.230469 114.160156 C 64.253906 114.25 62.746094 114.78125 60.796875 115.933594 Z M 30.929688 414.71875 C 27.386719 413.121094 24.195312 412.503906 21.449219 412.765625 L 21.09375 408.425781 C 20.914062 406.742188 21.890625 405.585938 24.019531 405.144531 C 25.964844 404.96875 27.121094 406.386719 27.296875 409.222656 C 32.4375 402.929688 35.273438 399.738281 35.804688 399.652344 L 39.085938 400.980469 C 38.019531 409.84375 35.273438 414.363281 30.929688 414.71875 Z M 350.074219 80.832031 C 348.566406 81.011719 345.554688 76.3125 341.210938 67.007812 L 340.945312 64.257812 C 343.78125 63.996094 346.707031 68.601562 349.808594 78.085938 Z M 345.820312 47.773438 L 344.578125 50.699219 L 301.238281 32.617188 C 330.132812 33.589844 345.023438 38.644531 345.820312 47.773438 Z M 162.804688 204.921875 L 156.691406 205.453125 L 156.425781 202.703125 L 162.542969 202.171875 Z M 157.84375 110.527344 L 159.347656 110.4375 L 159.707031 114.78125 C 158.289062 114.871094 156.425781 116.996094 154.121094 121.074219 L 153.855469 118.058594 C 156.601562 114.78125 158.019531 112.296875 157.84375 110.527344 Z M 144.992188 140.839844 L 145.523438 146.601562 L 144.019531 146.6875 L 143.488281 140.925781 Z M 138.257812 151.652344 L 141.183594 151.386719 C 140.914062 156.171875 139.585938 158.742188 137.195312 158.917969 L 135.6875 159.007812 C 137.546875 155.820312 138.433594 153.335938 138.257812 151.652344 Z M 133.203125 166.71875 L 134.890625 166.542969 L 134.976562 167.960938 L 132.230469 172.570312 L 129.304688 172.835938 L 129.21875 171.417969 C 132.144531 171.152344 133.472656 169.644531 133.203125 166.71875 Z M 128.242188 180.28125 L 127.355469 187.546875 L 125.851562 187.636719 L 125.230469 180.457031 Z M 78.523438 321.652344 C 76.574219 331.578125 74.445312 336.632812 72.230469 336.808594 L 72.144531 335.390625 C 71.609375 330.515625 73.738281 325.90625 78.523438 321.652344 Z M 69.394531 341.417969 L 69.484375 342.835938 C 69.660156 344.785156 68.773438 345.9375 66.824219 346.027344 L 66.734375 344.609375 C 66.558594 342.925781 67.445312 341.859375 69.394531 341.417969 Z M 66.734375 382.457031 L 71.34375 382.011719 L 71.523438 383.609375 C 70.367188 383.695312 68.863281 384.316406 67 385.378906 L 64.074219 385.644531 C 63.898438 384.136719 64.875 382.988281 66.734375 382.457031 Z M 197.902344 341.949219 C 172.023438 354.710938 156.78125 363.398438 152.257812 367.917969 C 124.253906 377.667969 110.339844 383.695312 110.605469 386.089844 C 85.703125 395.929688 69.304688 403.195312 61.417969 407.714844 C 59.558594 407.890625 56.898438 407.183594 53.351562 405.585938 C 52.910156 400.535156 55.214844 396.457031 60.089844 393.179688 C 64.433594 392.824219 68.597656 393.445312 72.585938 395.128906 C 77.195312 392.734375 85.257812 390.078125 96.691406 387.242188 L 96.425781 384.226562 L 87.207031 385.023438 C 88.359375 383.429688 97.222656 379.265625 113.886719 372.527344 L 118.492188 372.085938 L 118.582031 373.503906 C 110.695312 374.210938 106.351562 376.515625 105.378906 380.683594 C 105.554688 382.542969 106.617188 383.339844 108.566406 383.164062 C 114.507812 379.441406 117.429688 377.226562 117.34375 376.605469 C 128.597656 374.480469 159.707031 358.167969 210.664062 327.769531 L 210.929688 330.515625 C 211.019531 331.84375 206.675781 335.566406 197.902344 341.949219 Z M 119.734375 367.652344 C 127.179688 367.03125 133.5625 364.019531 138.875 358.789062 C 141.003906 358.613281 142.15625 359.410156 142.246094 361.269531 C 138.613281 361.625 131.609375 364.640625 121.417969 370.488281 L 119.910156 370.578125 Z M 245.851562 270.777344 L 206.765625 301.796875 C 177.695312 320.855469 162.097656 330.425781 159.792969 330.605469 C 113.53125 356.042969 84.726562 369.25 73.5625 370.222656 L 71.875 370.398438 C 73.292969 365.171875 93.855469 323.070312 133.738281 243.832031 C 151.285156 242.324219 178.9375 234.171875 216.601562 219.28125 L 225.820312 218.480469 C 244.875 216.800781 259.144531 220.519531 268.539062 229.382812 L 269.070312 235.144531 C 262.070312 255.445312 254.269531 267.320312 245.851562 270.777344 Z M 169.453125 227.789062 L 175.746094 227.257812 L 175.835938 228.675781 L 169.542969 229.207031 Z M 257.816406 212.808594 L 262.421875 212.367188 C 266.675781 214.40625 268.890625 216.179688 269.070312 217.773438 L 269.160156 219.191406 C 265.082031 219.546875 261.269531 217.417969 257.816406 212.808594 Z M 270.308594 141.636719 C 266.234375 146.511719 255.066406 154.84375 236.808594 166.542969 C 230.78125 167.074219 208.359375 175.761719 169.542969 192.777344 C 167.601562 191.890625 165.464844 191.523438 163.339844 191.714844 L 163.074219 188.96875 C 162.628906 183.382812 165.109375 176.382812 170.605469 167.875 C 173.617188 151.917969 176.898438 142.789062 180.53125 140.574219 L 212.878906 67.804688 C 212.527344 63.285156 219.4375 59.828125 233.617188 57.433594 L 238.226562 56.992188 L 238.582031 61.160156 C 252.496094 59.03125 261.179688 57.789062 264.546875 57.523438 C 290.253906 55.308594 303.632812 60.539062 304.695312 73.035156 L 307.621094 72.769531 L 307 65.414062 L 310.191406 65.144531 C 317.726562 69.3125 321.800781 74.363281 322.332031 80.300781 C 322.6875 84.378906 320.472656 89.429688 315.777344 95.460938 C 313.824219 95.636719 312.671875 94.21875 312.496094 91.382812 L 309.304688 91.648438 L 308.597656 100.511719 C 295.566406 120.011719 286.085938 130.027344 280.238281 130.558594 C 274.917969 137.914062 271.640625 141.546875 270.308594 141.636719 Z M 290.164062 192.601562 C 287.503906 190.828125 285.378906 190.03125 283.78125 190.121094 L 283.425781 185.777344 L 286.351562 185.507812 L 292.820312 189.324219 C 293.089844 191.359375 292.199219 192.425781 290.164062 192.601562 Z M 310.726562 216.976562 C 313.5625 218.128906 315.242188 219.367188 315.597656 220.519531 L 314.179688 220.875 L 314.269531 220.964844 C 314.003906 220.964844 313.648438 221.054688 313.382812 221.140625 L 311.253906 222.824219 Z M 312.671875 229.207031 L 312.40625 228.054688 L 316.128906 227.167969 L 316.398438 228.320312 Z M 321.625 239.222656 C 325.4375 238.601562 327.296875 238.335938 334.386719 236.742188 L 334.652344 237.890625 L 321.183594 240.996094 C 321.359375 240.375 321.535156 239.753906 321.625 239.222656 Z M 334.742188 244.808594 C 329.070312 245.339844 330.308594 244.628906 321.269531 246.667969 L 321.003906 245.515625 L 332.347656 241.882812 L 337.753906 240.640625 L 338.289062 242.769531 C 335.804688 243.300781 337.578125 243.300781 334.742188 244.808594 Z M 346.707031 241.96875 C 345.378906 242.324219 344.3125 241.707031 343.691406 240.199219 L 347.148438 239.398438 C 348.65625 239.046875 349.632812 239.667969 349.984375 241.171875 Z M 379.144531 207.046875 L 378.875 205.898438 L 384.460938 204.566406 L 384.992188 206.695312 Z M 413.796875 419.59375 C 414.148438 417.996094 414.238281 416.847656 414.0625 416.046875 L 415.304688 415.78125 C 416.808594 415.425781 417.695312 415.960938 418.050781 417.378906 L 418.316406 418.527344 Z M 438.078125 216.179688 L 435.597656 215.734375 C 431.609375 217.332031 428.242188 218.480469 425.492188 219.101562 L 423.191406 219.636719 C 421.859375 219.988281 420.796875 219.457031 420.265625 218.039062 L 436.484375 214.316406 L 441.800781 211.835938 L 443.574219 213.875 C 441.003906 214.40625 439.144531 215.203125 438.078125 216.179688 Z M 450.578125 212.1875 L 450.308594 211.039062 C 451.109375 210.859375 452.171875 210.242188 453.324219 209.085938 L 464.84375 206.425781 L 465.109375 207.582031 C 458.996094 209.085938 454.121094 210.59375 450.578125 212.1875 Z M 452.347656 188.878906 C 451.550781 189.054688 450.488281 189.765625 449.160156 190.828125 C 448.980469 190.03125 447.386719 190.03125 444.371094 190.738281 C 443.839844 188.523438 452.347656 185.421875 469.984375 181.34375 L 472.46875 180.8125 L 473 182.941406 C 460.589844 186.574219 453.675781 188.613281 452.347656 188.878906 Z M 483.367188 155.375 C 482.128906 169.46875 477.164062 177.445312 468.390625 179.484375 L 468.125 178.332031 L 460.324219 181.34375 L 456.871094 182.144531 C 455.09375 182.585938 453.5 182.496094 452.082031 182.054688 L 451.375 178.953125 C 451.109375 177.800781 462.363281 162.199219 485.230469 132.242188 L 487.886719 132.683594 C 488.863281 136.761719 487.355469 144.296875 483.367188 155.375 Z M 538.226562 108.398438 L 537.164062 108.488281 L 536.984375 106.273438 L 541.597656 105.828125 L 541.683594 106.980469 C 540.886719 107.160156 539.734375 107.601562 538.226562 108.398438 Z M 515.628906 335.390625 C 512.96875 334.148438 510.578125 333.617188 508.539062 333.792969 L 508.273438 330.425781 C 508.183594 329.277344 508.890625 328.476562 510.398438 328.035156 C 511.90625 327.859375 512.792969 328.917969 512.96875 331.222656 C 516.78125 326.351562 518.90625 323.867188 519.347656 323.867188 L 521.742188 324.84375 C 520.855469 331.578125 518.820312 335.125 515.628906 335.390625 Z M 757.929688 81.898438 C 756.78125 81.988281 754.5625 78.441406 751.109375 71.261719 L 750.929688 69.046875 C 753.144531 68.867188 755.453125 72.324219 757.753906 79.414062 Z M 754.742188 56.546875 L 753.675781 58.851562 L 720.886719 45.113281 C 742.777344 45.824219 754.121094 49.636719 754.742188 56.546875 Z M 615.6875 175.9375 L 611.078125 176.382812 L 610.902344 174.164062 L 615.507812 173.722656 Z M 611.875 104.234375 L 613.117188 104.144531 L 613.382812 107.511719 C 612.230469 107.601562 610.8125 109.199219 609.128906 112.296875 L 608.949219 110.082031 C 610.988281 107.511719 611.964844 105.5625 611.875 104.234375 Z M 602.214844 127.277344 L 602.570312 131.621094 L 601.328125 131.710938 L 600.976562 127.367188 Z M 596.984375 135.519531 L 599.289062 135.34375 C 599.023438 139.066406 598.050781 141.015625 596.367188 141.191406 L 595.125 141.28125 C 596.453125 138.800781 597.074219 136.851562 596.984375 135.519531 Z M 593.265625 146.867188 L 594.328125 146.777344 L 594.417969 147.929688 L 592.378906 151.476562 L 590.074219 151.652344 L 589.984375 150.5 C 592.378906 150.320312 593.441406 149.082031 593.265625 146.867188 Z M 589.542969 157.148438 L 588.746094 162.820312 L 587.679688 162.910156 L 587.238281 157.324219 Z M 551.699219 264.660156 C 550.191406 272.105469 548.597656 275.917969 546.910156 276.09375 L 546.824219 275.117188 C 546.558594 271.398438 548.152344 267.851562 551.699219 264.660156 Z M 544.695312 279.640625 L 544.785156 280.617188 C 544.964844 282.210938 544.253906 283.09375 542.65625 283.183594 L 542.570312 282.035156 C 542.480469 280.878906 543.191406 280.082031 544.695312 279.640625 Z M 542.746094 310.839844 L 546.292969 310.574219 L 546.378906 311.722656 C 545.582031 311.8125 544.34375 312.257812 542.925781 313.054688 L 540.621094 313.230469 C 540.53125 311.992188 541.238281 311.195312 542.746094 310.839844 Z M 642.273438 280.082031 C 622.777344 289.746094 611.164062 296.304688 607.53125 299.671875 C 586.261719 307.117188 575.714844 311.722656 575.894531 313.585938 C 557.015625 321.121094 544.609375 326.527344 538.761719 329.984375 C 537.34375 330.074219 535.304688 329.539062 532.644531 328.300781 C 532.289062 324.488281 534.0625 321.386719 537.785156 319.082031 C 541.152344 318.816406 544.34375 319.261719 547.269531 320.5 C 550.8125 318.726562 556.925781 316.777344 565.613281 314.558594 L 565.4375 312.34375 L 558.257812 312.964844 C 559.144531 311.722656 565.964844 308.535156 578.640625 303.394531 L 582.183594 303.125 L 582.273438 304.101562 C 576.25 304.632812 572.878906 306.40625 572.171875 309.597656 C 572.257812 311.015625 573.144531 311.722656 574.652344 311.546875 C 579.085938 308.625 581.210938 306.9375 581.210938 306.40625 C 589.71875 304.902344 613.292969 292.492188 652.023438 269.269531 L 652.199219 271.484375 C 652.199219 272.371094 648.921875 275.207031 642.273438 280.082031 Z M 582.894531 299.582031 C 588.65625 299.050781 593.53125 296.835938 597.605469 292.933594 C 599.113281 292.847656 600 293.46875 600.089844 294.886719 C 597.429688 295.148438 592.199219 297.367188 584.3125 301.621094 L 583.074219 301.707031 Z M 678.789062 225.929688 L 649.277344 249.683594 C 627.207031 264.128906 615.242188 271.398438 613.382812 271.574219 C 578.289062 290.894531 556.484375 300.910156 547.886719 301.621094 L 546.648438 301.707031 C 547.710938 297.722656 563.398438 265.722656 593.707031 205.628906 C 606.910156 204.480469 627.828125 198.1875 656.542969 186.839844 L 663.722656 186.21875 C 678.167969 184.980469 688.980469 187.816406 696.070312 194.640625 L 696.425781 198.984375 C 691.019531 214.226562 685.167969 223.179688 678.789062 225.929688 Z M 620.828125 193.308594 L 625.4375 192.867188 L 625.523438 194.019531 L 620.914062 194.464844 Z M 687.917969 181.875 L 691.460938 181.613281 C 694.742188 183.207031 696.425781 184.625 696.511719 185.777344 L 696.601562 186.75 C 693.5 187.015625 690.578125 185.421875 687.917969 181.875 Z M 697.222656 127.898438 C 694.121094 131.621094 685.703125 138.003906 671.964844 146.867188 C 667.355469 147.308594 650.339844 153.867188 620.914062 166.632812 C 619.496094 166.097656 617.902344 165.921875 616.21875 166.011719 L 616.039062 163.796875 C 615.6875 159.539062 617.546875 154.222656 621.625 147.753906 C 623.929688 135.519531 626.5 128.695312 629.160156 127.101562 L 653.886719 71.792969 C 653.617188 68.511719 658.847656 65.855469 669.484375 63.816406 L 673.027344 63.550781 L 673.292969 66.917969 C 683.75 65.234375 690.308594 64.257812 692.96875 63.996094 C 712.46875 62.308594 722.65625 66.210938 723.457031 75.78125 L 725.761719 75.605469 L 725.316406 70.285156 L 727.621094 70.109375 C 733.292969 73.210938 736.308594 76.933594 736.660156 81.367188 C 736.925781 84.554688 735.332031 88.457031 731.964844 92.976562 C 730.457031 93.152344 729.570312 92.089844 729.394531 89.785156 L 727.089844 89.964844 L 726.382812 96.609375 C 716.542969 111.589844 709.363281 119.300781 704.84375 119.65625 C 700.855469 125.0625 698.375 127.8125 697.222656 127.898438 Z M 707.59375 164.769531 L 707.328125 161.402344 L 709.632812 161.226562 L 714.59375 164.238281 C 714.683594 165.65625 713.972656 166.457031 712.46875 166.632812 C 710.339844 165.300781 708.746094 164.679688 707.59375 164.769531 Z M 295.035156 380.0625 L 292.730469 380.59375 L 290.78125 382.277344 C 291.136719 383.695312 292.023438 384.226562 293.53125 383.875 C 295.035156 383.519531 295.65625 382.632812 295.304688 381.214844 Z M 286.261719 362.601562 L 286.527344 363.753906 C 288.035156 363.398438 288.65625 362.511719 288.300781 361.09375 L 288.035156 359.941406 C 286.617188 360.296875 285.996094 361.183594 286.261719 362.601562 Z M 349.011719 244.71875 L 350.695312 243.652344 C 350.339844 243.652344 350.074219 243.566406 349.808594 243.476562 C 349.1875 243.652344 348.921875 244.097656 349.011719 244.71875 Z M 348.65625 214.136719 L 351.3125 213.519531 L 350.78125 211.214844 L 348.125 211.835938 Z M 974.980469 303.660156 L 968.949219 302.949219 L 967.886719 305.253906 L 967.976562 306.40625 L 1003.871094 303.394531 L 1003.691406 301.179688 Z M 1007.769531 300.910156 L 1007.945312 303.125 L 1008.300781 303.125 L 1008.125 300.910156 Z M 1158.34375 281.234375 L 1158.523438 283.453125 L 1162.421875 284.160156 L 1162.246094 281.945312 Z M 1152.851562 281.675781 C 1125.910156 287.707031 1122.542969 286.640625 1116.871094 287.085938 L 1117.046875 289.300781 L 1119.527344 289.125 L 1120.855469 289.035156 L 1120.503906 288.769531 L 1123.425781 287.617188 C 1150.105469 284.691406 1153.203125 285.753906 1152.941406 282.742188 Z M 991.109375 242.503906 L 988.714844 241.707031 C 986.765625 246.933594 985.789062 250.035156 985.878906 250.921875 L 985.964844 251.898438 C 987.828125 251.808594 989.511719 248.617188 991.109375 242.503906 Z M 958.671875 225.042969 L 958.582031 223.890625 L 957.34375 223.976562 L 955.125 225.398438 L 956.367188 227.523438 C 958.050781 227.347656 958.847656 226.546875 958.671875 225.042969 Z M 1029.128906 297.898438 L 1028.949219 295.683594 L 1028.242188 295.769531 L 1028.417969 297.988281 Z M 1175.363281 264.925781 L 1177.046875 264.75 C 1178.019531 264.660156 1178.464844 263.863281 1178.375 262.445312 L 1177.398438 260.316406 C 1171.285156 260.847656 1168.449219 261.117188 1163.488281 263.863281 L 1163.398438 262.710938 L 1156.039062 263.421875 C 1155.863281 261.203125 1155.242188 260.050781 1154.269531 260.140625 L 1150.457031 260.496094 C 1146.027344 260.847656 1143.898438 260.671875 1141.683594 262.355469 C 1141.597656 261.558594 1141.328125 261.203125 1140.886719 261.203125 L 1136.632812 261.558594 L 1134.148438 262.976562 C 1134.0625 262.179688 1133.796875 261.824219 1133.351562 261.824219 L 1131.847656 263.152344 L 1131.757812 262.003906 L 1125.820312 261.558594 L 1124.402344 261.648438 L 1124.578125 263.863281 L 1127.59375 264.660156 L 1130.429688 264.484375 C 1131.402344 265.101562 1132.46875 265.28125 1133.707031 265.191406 L 1136.1875 263.953125 L 1136.277344 264.925781 C 1122.363281 268.382812 1122.453125 267.761719 1112.878906 269.355469 C 1111.816406 268.648438 1111.019531 268.296875 1110.488281 268.382812 L 1110.308594 268.558594 C 1109.246094 268.472656 1108.625 267.761719 1108.539062 266.609375 L 1113.5 265.988281 C 1113.855469 265.988281 1114.121094 266.34375 1116.867188 266.878906 C 1120.855469 264.925781 1121.035156 264.128906 1123.160156 263.953125 L 1122.984375 261.734375 C 1109.335938 264.394531 1114.832031 262.621094 1097.726562 264.128906 L 1096.925781 264.21875 L 1096.75 262.003906 C 1118.730469 259.339844 1111.375 260.847656 1118.90625 258.722656 C 1118.996094 259.519531 1119.261719 259.875 1119.707031 259.875 C 1120.511719 259.050781 1121.574219 258.519531 1122.71875 258.367188 L 1124.222656 258.28125 C 1131.933594 257.660156 1134.507812 259.164062 1149.75 254.910156 L 1149.835938 255.886719 L 1152.320312 254.644531 L 1154.621094 254.46875 C 1154.445312 252.25 1157.816406 251.898438 1158.964844 251.808594 L 1158.789062 249.414062 C 1132.023438 254.824219 1125.019531 253.316406 1117.578125 255.445312 L 1117.488281 254.46875 C 1110.488281 255.707031 1110.222656 255.175781 1108.449219 255.265625 C 1107.917969 255.355469 1107.121094 255.796875 1106.234375 256.683594 C 1106.144531 255.886719 1105.878906 255.53125 1105.347656 255.53125 C 1105.082031 255.53125 1104.992188 255.621094 1104.90625 255.621094 L 1082.214844 259.339844 C 1082.128906 258.722656 1081.859375 258.367188 1081.328125 258.457031 C 1069.542969 260.9375 1072.730469 261.382812 1056.957031 262.800781 C 1056.25 262.886719 1055.273438 263.242188 1054.035156 264.039062 C 1053.945312 263.421875 1053.589844 263.066406 1052.792969 263.152344 L 1043.128906 263.953125 L 1036.660156 265.546875 C 1036.574219 264.925781 1036.21875 264.570312 1035.421875 264.660156 C 1031.785156 265.636719 1028.597656 266.257812 1026.027344 266.433594 L 1025.851562 266.433594 C 1024.253906 266.609375 1026.648438 265.988281 1025.40625 265.460938 L 1023.457031 266.609375 C 1020.621094 266.878906 1022.128906 266.433594 1012.378906 266.519531 C 995.273438 268.648438 997.132812 268.914062 995.273438 269.003906 L 988.890625 268.558594 C 988.980469 269.179688 988.625 269.625 987.917969 269.625 C 980.652344 268.648438 976.929688 267.496094 976.839844 266.167969 C 977.816406 259.253906 979.496094 255.707031 981.890625 255.53125 L 983.132812 255.445312 L 982.070312 257.746094 L 983.308594 257.660156 C 985.613281 256.417969 986.675781 255.265625 986.585938 254.203125 L 986.410156 251.808594 L 984.105469 251.988281 L 983.929688 249.769531 C 983.75 248.085938 984.019531 246.578125 984.636719 245.339844 L 989.867188 236.917969 L 990.042969 239.132812 L 992.527344 238.957031 L 992.347656 236.742188 L 990.929688 234.703125 C 992.792969 233.105469 994.210938 232.21875 995.363281 232.128906 L 995.273438 230.980469 L 991.90625 231.246094 L 991.640625 227.875 C 998.375 213.875 1001.566406 205.71875 1001.386719 203.414062 L 1003.78125 204.390625 C 1005.289062 204.300781 1005.996094 203.414062 1005.910156 201.820312 L 1003.601562 201.996094 L 1003.515625 201.023438 C 1003.351562 199.402344 1003.660156 197.773438 1004.402344 196.324219 C 1008.035156 192.511719 1009.71875 188.703125 1009.363281 184.710938 C 1010.074219 184.625 1010.429688 184.980469 1010.515625 185.777344 C 1013.621094 184.003906 1016.011719 179.304688 1017.785156 171.507812 C 1023.277344 161.582031 1031.078125 141.722656 1041.269531 112.035156 C 1060.769531 59.5625 1059.96875 53.980469 1062.71875 41.570312 L 1060.414062 41.746094 C 1060.589844 43.34375 1060.238281 44.847656 1059.527344 46.265625 C 1057.929688 45.644531 1056.691406 45.292969 1055.804688 45.382812 L 1055.714844 44.40625 C 1055.363281 39.882812 1057.222656 34.480469 1061.476562 28.097656 L 1062.542969 28.007812 L 1064.492188 35.628906 L 1066.796875 35.453125 C 1066.707031 34.921875 1067.328125 31.90625 1068.566406 26.324219 C 1068.476562 25.171875 1067.59375 24.464844 1065.820312 24.375 L 1063.605469 25.792969 C 1063.425781 24.195312 1063.515625 20.03125 1063.78125 13.382812 L 1062.628906 13.472656 C 1060.679688 11.523438 1059.707031 9.925781 1059.617188 8.597656 L 1046.941406 9.835938 C 1046.855469 8.953125 1046.410156 7.621094 1045.523438 5.9375 C 1045.4375 4.785156 1048.273438 3.632812 1054.121094 2.480469 L 1056.691406 3.457031 L 1059.085938 2.039062 C 1059.171875 2.835938 1059.617188 3.191406 1060.503906 3.101562 L 1062.894531 1.683594 C 1062.984375 2.480469 1063.425781 2.835938 1064.3125 2.746094 L 1065.464844 2.65625 L 1065.289062 0.0898438 C 1063.515625 0.265625 1058.820312 0.265625 1051.375 0 L 1048.980469 1.597656 L 1048.890625 0.179688 C 989.421875 5.050781 955.65625 7.800781 947.59375 8.597656 C 946.527344 8.6875 942.363281 8.597656 935.007812 8.417969 C 935.09375 9.394531 934.210938 9.925781 932.4375 10.105469 L 929.867188 8.953125 L 921.183594 11.167969 C 919.144531 11.34375 915.6875 11.253906 910.902344 10.722656 C 909.570312 11.789062 907.976562 12.410156 906.027344 12.585938 C 904.964844 12.671875 918.699219 11.875 931.460938 10.992188 C 930.132812 12.054688 928.09375 12.671875 925.257812 12.941406 C 923.308594 13.117188 921.625 12.851562 920.207031 12.054688 C 918.257812 12.941406 911.964844 14.359375 901.417969 16.484375 L 898.847656 15.511719 L 857.371094 21.890625 C 855.777344 21.09375 853.914062 20.828125 851.785156 21.007812 C 849.570312 21.183594 845.851562 21.980469 840.710938 23.398438 L 820.679688 31.730469 L 822.183594 34.210938 C 823.160156 34.125 824.578125 33.589844 826.261719 32.617188 L 833.351562 33.238281 L 832.46875 39.882812 C 825.910156 42.808594 822.097656 47.152344 821.035156 52.648438 C 811.199219 56.992188 806.324219 60.09375 806.324219 61.957031 L 806.410156 63.105469 L 807.917969 63.019531 L 810.578125 61.601562 L 813.675781 65.324219 L 814.121094 70.464844 C 814.296875 72.058594 797.726562 106.890625 764.578125 174.964844 C 735.863281 240.550781 720.796875 276.449219 719.378906 282.917969 C 709.542969 285.667969 703.871094 289.65625 702.183594 294.972656 C 702.363281 296.65625 705.289062 297.8125 710.960938 298.253906 L 711.226562 300.824219 L 708.65625 305.078125 L 709.097656 310.21875 C 709.363281 312.878906 716.542969 314.917969 730.636719 316.335938 C 730.546875 315.449219 730.988281 314.917969 731.964844 314.828125 C 732.230469 318.019531 731.34375 324.222656 729.304688 333.441406 L 730.8125 333.351562 C 736.660156 325.375 739.410156 319.878906 739.144531 316.867188 L 740.382812 316.777344 C 741.800781 316.6875 743.308594 318.285156 745.082031 321.738281 C 743.308594 322.449219 737.105469 336.542969 726.46875 364.105469 L 727.976562 366.589844 L 729.484375 366.5 C 742.511719 333.53125 750.664062 315.269531 754.03125 311.8125 C 771.136719 310.304688 800.738281 307.292969 842.746094 302.773438 L 845.40625 301.175781 C 845.492188 302.066406 846.027344 302.507812 847 302.417969 L 849.75 302.152344 L 852.40625 300.558594 C 852.496094 301.445312 853.027344 301.886719 854.003906 301.796875 L 885.820312 299.050781 C 894.238281 298.339844 898.226562 295.769531 897.871094 291.429688 C 897.785156 290.273438 902.746094 288.945312 912.761719 287.527344 C 913.738281 287.4375 915.15625 287.707031 917.105469 288.324219 C 917.015625 287.527344 922.070312 286.730469 932.171875 285.84375 C 932.4375 280.527344 934.121094 277.691406 937.132812 277.421875 L 936.871094 274.855469 C 934.035156 275.117188 930.839844 275.828125 927.121094 277.070312 C 920.472656 276.714844 916.21875 276.183594 914.445312 275.5625 C 912.671875 276.535156 911.34375 277.070312 910.367188 277.15625 L 888.214844 277.867188 L 885.554688 279.285156 C 885.464844 278.488281 884.933594 278.132812 883.960938 278.222656 L 882.71875 278.308594 L 879.882812 279.730469 C 879.792969 278.929688 877.488281 278.308594 872.878906 277.691406 L 870.042969 279.371094 L 864.550781 279.816406 L 864.460938 278.398438 C 893 275.296875 907.089844 271.398438 906.734375 266.789062 C 908.597656 266.609375 909.570312 267.496094 909.746094 269.355469 L 918.078125 267.230469 L 917.816406 264.660156 L 849.484375 266.519531 C 849.570312 267.40625 849.128906 267.9375 848.152344 268.027344 L 839.820312 267.320312 C 837.695312 267.496094 835.925781 268.117188 834.507812 269.179688 L 831.402344 268.027344 C 822.804688 268.738281 816.425781 269.800781 812.171875 271.132812 C 806.324219 270.6875 799.851562 270.777344 792.671875 271.398438 L 777.34375 272.726562 L 770.253906 271.929688 C 769.894531 267.40625 778.671875 245.160156 796.75 205.277344 C 801.980469 191.804688 806.765625 183.382812 811.375 180.195312 C 812.347656 180.105469 813.765625 180.457031 815.714844 181.253906 L 826.617188 177.53125 L 832.199219 178.417969 C 841.597656 177.621094 852.496094 174.964844 864.992188 170.355469 C 868.09375 170.089844 870.398438 170.265625 872.082031 170.976562 L 880.414062 169.023438 L 905.230469 166.894531 C 915.777344 166.011719 927.207031 163.707031 939.617188 159.894531 L 939.347656 157.324219 C 934.742188 157.769531 932.347656 156.96875 932.171875 155.109375 C 931.90625 151.652344 928.539062 150.234375 922.070312 150.765625 L 921.800781 148.195312 L 928.625 146.246094 L 946.527344 144.738281 L 946.261719 142.171875 C 945.554688 142.257812 941.921875 142.171875 935.183594 141.902344 L 934.917969 139.15625 L 941.832031 138.535156 C 943.691406 138.359375 944.492188 137.46875 944.3125 135.699219 C 935.007812 135.964844 930.308594 135.519531 930.222656 134.28125 C 865.347656 137.46875 832.820312 138.089844 832.644531 136.050781 C 831.671875 136.140625 830.339844 136.761719 828.566406 137.828125 L 826.882812 135.167969 C 844.074219 98.648438 854.179688 80.210938 857.105469 79.949219 C 857.195312 81.367188 856.484375 83.667969 854.976562 86.773438 L 855.066406 87.925781 L 857.816406 87.660156 C 864.636719 71.351562 870.398438 62.929688 875.183594 62.578125 C 895.566406 60.800781 872.347656 59.472656 915.953125 52.648438 C 917.726562 53.445312 918.964844 53.800781 919.851562 53.710938 C 936.957031 50.253906 960.796875 46.621094 991.375 42.898438 L 991.195312 40.328125 L 974.890625 41.835938 L 974.710938 39.261719 C 976.660156 39.085938 978.257812 38.464844 979.585938 37.402344 L 979.675781 38.820312 C 980.5625 38.734375 981.800781 38.113281 983.398438 37.046875 C 986.234375 36.785156 988.359375 37.046875 989.867188 37.84375 C 995.539062 36.339844 1000.148438 35.453125 1003.515625 35.097656 L 1013.707031 34.125 C 1016.1875 32.53125 1017.34375 31.109375 1017.253906 29.78125 L 1017.164062 28.628906 C 1014.59375 28.894531 1011.671875 28.71875 1008.214844 28.097656 C 1008.125 26.679688 1008.832031 25.703125 1010.515625 25.261719 L 1029.484375 23.488281 L 1038.167969 21.269531 C 1038.257812 22.246094 1038.699219 22.601562 1039.410156 22.601562 C 1040.292969 22.511719 1041.535156 21.890625 1043.128906 20.828125 C 1043.574219 20.917969 1044.105469 20.917969 1044.546875 21.007812 C 1043.398438 23.398438 1042.070312 26.855469 1040.738281 31.375 L 1038.257812 31.554688 C 1038.078125 29.867188 1037.636719 28.363281 1036.839844 27.03125 L 1035.597656 27.121094 C 1012.554688 91.292969 1002.273438 121.164062 981.003906 170.441406 C 977.105469 183.03125 973.824219 190.03125 970.988281 191.539062 C 971.078125 192.957031 971.964844 193.664062 973.472656 193.488281 C 974.003906 199.691406 972.585938 205.808594 969.128906 211.835938 C 959.289062 240.199219 952.730469 255.707031 949.363281 258.542969 L 951.582031 271.929688 C 951.667969 273.347656 950.960938 274.144531 949.453125 274.320312 L 947.148438 274.5 C 946.796875 270.777344 945.464844 269.003906 943.074219 269.269531 L 941.832031 269.355469 C 938.816406 274.054688 936.511719 279.460938 935.007812 285.753906 L 937.3125 285.578125 C 940.414062 283.539062 941.832031 281.148438 941.566406 278.398438 L 946.175781 277.953125 L 948.832031 278.929688 C 946.707031 282.296875 945.730469 284.957031 945.910156 286.996094 L 947.148438 289.125 L 944.136719 296.214844 L 944.222656 297.367188 C 946.882812 297.101562 949.808594 297.988281 952.910156 299.847656 C 955.035156 299.671875 957.34375 298.695312 959.910156 297.011719 C 962.570312 296.746094 972.496094 296.65625 989.601562 296.65625 L 998.199219 293.730469 C 1008.65625 293.644531 1010.339844 293.910156 1019.378906 293.109375 L 1023.101562 292.757812 L 1025.050781 291.429688 L 1025.140625 292.582031 C 1034.621094 291.78125 1035.242188 292.402344 1042.6875 293.289062 L 1042.777344 294.441406 L 1037.546875 294.886719 L 1037.726562 297.101562 C 1039.320312 296.921875 1040.738281 296.480469 1041.890625 295.503906 C 1043.21875 295.417969 1044.015625 296.125 1044.105469 297.722656 C 1041.980469 297.898438 1039.585938 298.429688 1036.925781 299.316406 L 1034.621094 298.519531 C 1030.988281 299.492188 1031.785156 299.757812 1029.304688 299.9375 L 1025.671875 299.230469 C 1025.761719 299.847656 1025.40625 300.289062 1024.785156 300.289062 C 1024.875 301.707031 1025.671875 302.417969 1027 302.328125 L 1030.722656 301.976562 L 1050.132812 300.289062 L 1057.488281 298.695312 C 1057.578125 299.316406 1057.84375 299.671875 1058.464844 299.582031 L 1062.007812 298.253906 L 1068.65625 297.722656 C 1073.796875 297.277344 1073.707031 296.921875 1084.875 295.148438 C 1084.785156 294.441406 1085.050781 294.175781 1085.582031 294.085938 L 1085.671875 295.0625 C 1103.839844 291.960938 1104.992188 291.78125 1107.917969 290.808594 L 1108.183594 291.339844 C 1112.703125 290.273438 1110.132812 290.542969 1111.375 289.65625 C 1111.460938 290.453125 1111.726562 290.808594 1112.171875 290.808594 L 1115.363281 290.542969 L 1115.183594 288.148438 L 1108.714844 288.058594 L 1108.625 287.882812 C 1108.359375 287.96875 1108.183594 287.96875 1107.917969 288.058594 L 1107.03125 288.058594 L 1107.03125 288.238281 C 1102.6875 289.125 1102.597656 288.503906 1099.761719 288.769531 L 1083.542969 289.65625 L 1083.457031 288.503906 L 1092.496094 287.261719 L 1095.777344 286.996094 L 1097.636719 285.667969 L 1097.726562 286.820312 C 1110.488281 285.753906 1115.007812 288.945312 1174.03125 276.359375 C 1177.222656 276.09375 1176.957031 273.4375 1178.996094 267.9375 C 1177.914062 268.011719 1176.835938 267.765625 1175.894531 267.230469 C 1171.019531 269.09375 1168.449219 268.207031 1159.054688 269.714844 C 1158.257812 269.800781 1157.636719 269.09375 1157.371094 267.675781 L 1157.28125 266.699219 L 1166.320312 266.964844 C 1168.003906 266.789062 1171.285156 266.519531 1176.160156 263.773438 C 1176.160156 264.570312 1174.296875 265.015625 1175.359375 264.925781 Z M 738.964844 271.929688 L 734.800781 272.28125 C 734.621094 270.601562 736.839844 264.21875 741.449219 253.316406 L 744.195312 253.050781 C 744.285156 255.621094 742.597656 261.914062 738.964844 271.929688 Z M 744.019531 251.71875 L 743.929688 250.566406 C 743.839844 249.148438 744.726562 248.175781 746.675781 247.730469 L 746.765625 248.882812 C 746.855469 250.566406 745.964844 251.542969 744.019531 251.71875 Z M 799.410156 294.527344 L 799.496094 295.683594 L 792.585938 296.304688 L 792.496094 295.148438 Z M 791.078125 293.820312 C 791.167969 295.238281 789.039062 296.835938 784.433594 298.429688 L 775.921875 297.8125 L 773.175781 298.074219 L 772.910156 295.503906 Z M 847.089844 35.984375 L 842.925781 36.339844 L 842.835938 34.921875 C 842.746094 33.503906 843.546875 32.53125 845.316406 32.085938 L 846.824219 31.996094 L 849.660156 33.148438 C 849.746094 34.832031 848.949219 35.808594 847.089844 35.984375 Z M 910.457031 23.574219 L 911.785156 23.488281 L 911.964844 26.058594 L 908.152344 26.410156 C 908.066406 24.992188 908.773438 24.019531 910.457031 23.574219 Z M 894.503906 29.160156 L 888.214844 28.449219 L 888.125 27.300781 C 896.367188 26.589844 899.113281 25.703125 904.164062 24.285156 C 904.253906 25.261719 905.140625 25.613281 906.734375 25.4375 L 906.910156 28.007812 L 904.433594 28.273438 C 902.480469 28.449219 900.796875 28.1875 899.378906 27.386719 C 897.871094 28.363281 896.277344 28.984375 894.503906 29.160156 Z M 902.394531 52.117188 L 902.304688 50.964844 L 912.496094 49.988281 L 912.585938 51.144531 Z M 913.292969 43.253906 L 913.203125 41.835938 L 918.167969 41.390625 L 918.257812 42.808594 Z M 914.445312 25.882812 L 913.117188 25.96875 L 914.269531 23.222656 L 925.613281 22.15625 L 925.703125 23.574219 C 922.777344 23.84375 918.964844 24.640625 914.445312 25.882812 Z M 920.207031 50.34375 L 920.03125 47.773438 L 924.992188 47.332031 C 926.675781 47.152344 927.5625 47.949219 927.652344 49.722656 Z M 950.25 9.394531 L 943.871094 11.167969 L 942.71875 11.253906 C 939.707031 11.523438 935.804688 11.433594 931.195312 10.992188 C 939.4375 10.457031 947.328125 9.835938 950.25 9.394531 Z M 943.425781 37.757812 L 943.515625 38.910156 L 934.742188 39.707031 L 934.652344 38.554688 Z M 957.785156 44.582031 C 957.695312 43.519531 956.011719 42.808594 952.554688 42.457031 L 943.78125 44.9375 L 937.046875 45.203125 C 935.539062 44.140625 934.742188 43.429688 934.652344 42.898438 L 942.453125 43.34375 L 960 40.503906 L 968.949219 40.859375 L 969.039062 42.277344 C 964.609375 42.722656 960.886719 43.519531 957.785156 44.582031 Z M 1048.09375 21.269531 C 1049.160156 21.359375 1049.867188 21.359375 1050.132812 21.359375 C 1053.234375 18.347656 1056.691406 15.953125 1060.679688 14.269531 C 1057.488281 28.273438 1052.527344 38.644531 1045.703125 45.382812 L 1040.738281 42.367188 C 1044.90625 31.820312 1047.386719 24.816406 1048.09375 21.269531 Z M 1032.851562 47.417969 L 1034.089844 47.332031 C 1032.40625 50.523438 1030.902344 52.203125 1029.660156 52.292969 L 1029.394531 48.925781 C 1030.191406 48.925781 1031.34375 48.394531 1032.851562 47.417969 Z M 1023.015625 70.90625 C 1025.40625 61.335938 1027.710938 55.929688 1029.835938 54.511719 L 1029.925781 55.660156 C 1028.6875 64.523438 1026.734375 69.222656 1024.164062 69.578125 L 1024.609375 75.160156 C 1022.480469 78.175781 1021.507812 80.480469 1021.59375 82.25 L 1020.355469 82.339844 L 1019.644531 74.628906 C 1021.0625 74.453125 1022.214844 73.210938 1023.015625 70.90625 Z M 1019.203125 83.667969 C 1019.289062 85 1018.402344 88.101562 1016.632812 92.886719 L 1015.390625 92.976562 L 1015.125 89.609375 C 1016.808594 85.707031 1018.226562 83.757812 1019.199219 83.667969 Z M 947.679688 291.25 L 947.59375 290.273438 L 949.894531 290.097656 L 950.164062 293.46875 C 948.921875 293.554688 948.035156 292.847656 947.679688 291.25 Z M 1049.867188 293.910156 C 1049.777344 293.109375 1049.421875 292.757812 1048.625 292.847656 L 1042.867188 293.378906 L 1042.777344 292.226562 L 1043.308594 292.226562 L 1056.957031 291.074219 L 1057.046875 292.226562 C 1053.058594 292.402344 1050.664062 293.023438 1049.867188 293.910156 Z M 1043.042969 291.074219 C 1043.574219 291.339844 1043.308594 291.605469 1043.042969 291.78125 C 1042.777344 291.691406 1042.421875 291.429688 1043.042969 291.074219 Z M 1043.75 275.117188 L 1036.128906 275.738281 L 1036.039062 274.585938 L 1042.953125 273.96875 L 1048.980469 272.460938 C 1049.070312 273.167969 1049.421875 273.4375 1050.222656 273.347656 C 1057.402344 272.105469 1056.691406 271.75 1060.148438 271.484375 C 1061.300781 271.398438 1062.007812 272.105469 1062.097656 273.523438 Z M 1070.429688 272.816406 C 1066.175781 272.371094 1065.910156 272.019531 1062.894531 272.28125 L 1062.804688 271.308594 L 1069.632812 270.6875 L 1069.71875 271.664062 C 1069.011719 271.75 1071.582031 271.929688 1070.429688 272.816406 Z M 1070.960938 271.574219 L 1070.871094 270.601562 L 1074.59375 270.242188 L 1074.683594 271.21875 Z M 1079.203125 270.863281 L 1079.113281 269.890625 C 1079.734375 269.800781 1080.621094 269.355469 1081.773438 268.472656 C 1083.632812 268.296875 1084.609375 269.535156 1084.785156 270.953125 Z M 1089.75 269.535156 L 1089.660156 268.382812 L 1094.179688 268.027344 L 1094.269531 269.179688 Z M 1096.039062 269.003906 C 1095.953125 267.675781 1096.484375 266.878906 1097.636719 266.699219 L 1099.144531 268.648438 C 1099.054688 268.027344 1099.320312 267.675781 1099.851562 267.585938 L 1101.003906 269.714844 Z M 1183.25 258.722656 L 1183.339844 258.632812 L 1183.339844 258.542969 C 1183.339844 258.542969 1183.25 258.632812 1183.25 258.722656 Z M 1184.84375 257.570312 C 1185.554688 257.125 1185.910156 256.683594 1184.222656 256.417969 C 1183.425781 257.304688 1185.109375 257.570312 1183.339844 257.660156 L 1183.425781 258.457031 C 1183.601562 258.28125 1184.046875 258.011719 1184.402344 257.746094 L 1183.425781 258.542969 L 1183.425781 258.632812 L 1181.566406 261.027344 L 1185.289062 259.699219 L 1185.730469 259.699219 L 1185.554688 257.480469 Z M 1191.3125 262.625 L 1190.605469 262.710938 L 1190.78125 264.925781 L 1196.011719 264.484375 C 1195.925781 263.066406 1192.46875 262.625 1191.3125 262.625 Z M 1191.3125 262.625 "/>
</g>
</svg>
