<svg width="1440" height="27" viewBox="0 0 1440 27" fill="none" xmlns="http://www.w3.org/2000/svg">
<g opacity="0.25">
<path d="M0 7.27637C34.2864 7.27637 34.2863 19.9178 68.5727 19.9178C102.859 19.9178 102.859 7.27637 137.132 7.27637C171.405 7.27637 171.418 19.9178 205.705 19.9178C239.991 19.9178 239.991 7.27637 274.277 7.27637C308.564 7.27637 308.564 19.9178 342.837 19.9178C377.11 19.9178 377.123 7.27637 411.409 7.27637C445.696 7.27637 445.696 19.9178 479.982 19.9178C514.268 19.9178 514.268 7.27637 548.555 7.27637C582.841 7.27637 582.828 19.9178 617.114 19.9178C651.4 19.9178 651.4 7.27637 685.687 7.27637C719.973 7.27637 719.973 19.9178 754.246 19.9178C788.519 19.9178 788.532 7.27637 822.819 7.27637C857.105 7.27637 857.105 19.9178 891.405 19.9178C925.705 19.9178 925.678 7.27637 959.964 7.27637C994.251 7.27637 994.264 19.9178 1028.55 19.9178C1062.84 19.9178 1062.84 7.27637 1097.11 7.27637C1131.38 7.27637 1131.4 19.9178 1165.68 19.9178C1199.97 19.9178 1199.97 7.27637 1234.27 7.27637C1268.57 7.27637 1268.55 19.9178 1302.84 19.9178C1337.13 19.9178 1337.13 7.27637 1371.41 7.27637C1405.7 7.27637 1405.71 19.9178 1440 19.9178" fill="black"/>
<path d="M0 7.27637C34.2864 7.27637 34.2863 19.9178 68.5727 19.9178C102.859 19.9178 102.859 7.27637 137.132 7.27637C171.405 7.27637 171.418 19.9178 205.705 19.9178C239.991 19.9178 239.991 7.27637 274.277 7.27637C308.564 7.27637 308.564 19.9178 342.837 19.9178C377.11 19.9178 377.123 7.27637 411.409 7.27637C445.696 7.27637 445.696 19.9178 479.982 19.9178C514.268 19.9178 514.268 7.27637 548.555 7.27637C582.841 7.27637 582.828 19.9178 617.114 19.9178C651.4 19.9178 651.4 7.27637 685.687 7.27637C719.973 7.27637 719.973 19.9178 754.246 19.9178C788.519 19.9178 788.532 7.27637 822.819 7.27637C857.105 7.27637 857.105 19.9178 891.405 19.9178C925.705 19.9178 925.678 7.27637 959.964 7.27637C994.251 7.27637 994.264 19.9178 1028.55 19.9178C1062.84 19.9178 1062.84 7.27637 1097.11 7.27637C1131.38 7.27637 1131.4 19.9178 1165.68 19.9178C1199.97 19.9178 1199.97 7.27637 1234.27 7.27637C1268.57 7.27637 1268.55 19.9178 1302.84 19.9178C1337.13 19.9178 1337.13 7.27637 1371.41 7.27637C1405.7 7.27637 1405.71 19.9178 1440 19.9178" stroke="black" stroke-width="13" stroke-miterlimit="10"/>
</g>
</svg>
