<svg height="800" width="800" xmlns="http://www.w3.org/2000/svg" viewBox="0 0 512 512" xml:space="preserve"><path class="st0" d="M500.781 224.245 447 211.561a195 195 0 0 0-24.509-59.193l29.053-46.992a14.57 14.57 0 0 0-2.097-17.965l-24.86-24.86a14.57 14.57 0 0 0-17.956-2.088L359.64 89.517A195 195 0 0 0 300.456 65l-12.693-53.78A14.58 14.58 0 0 0 273.588 0h-35.166a14.57 14.57 0 0 0-14.176 11.219L211.553 65a194.8 194.8 0 0 0-59.175 24.509l-47.001-29.053c-5.745-3.544-13.193-2.675-17.956 2.088L62.553 87.412a14.556 14.556 0 0 0-2.088 17.956l29.044 47A195 195 0 0 0 65 211.552l-53.772 12.684C4.657 225.798 0 231.676 0 238.412v35.166a14.56 14.56 0 0 0 11.228 14.175L65 300.447a195 195 0 0 0 24.518 59.185l-29.053 46.991c-3.544 5.746-2.684 13.202 2.08 17.965l24.868 24.86c4.781 4.789 12.21 5.64 17.965 2.087l47.001-29.044a194.8 194.8 0 0 0 59.175 24.508l12.692 53.781A14.56 14.56 0 0 0 238.422 512h35.166c6.746 0 12.623-4.64 14.175-11.22l12.693-53.781a195 195 0 0 0 59.176-24.508l47 29.053a14.56 14.56 0 0 0 17.956-2.096l24.869-24.86a14.57 14.57 0 0 0 2.088-17.956l-29.053-47a194.9 194.9 0 0 0 24.509-59.176l53.781-12.693a14.57 14.57 0 0 0 11.219-14.184V238.42a14.56 14.56 0 0 0-11.22-14.175M256 390.614c-74.334 0-134.606-60.272-134.606-134.614S181.666 121.385 256 121.385c74.359 0 134.623 60.272 134.623 134.615 0 74.342-60.264 134.614-134.623 134.614" fill="#fff"/><path class="st0" d="M256 170.684c-47.114 0-85.316 38.194-85.316 85.316s38.202 85.315 85.316 85.315c47.123 0 85.316-38.192 85.316-85.315S303.123 170.684 256 170.684m0 127.175c-23.114 0-41.86-18.746-41.86-41.859s18.746-41.86 41.86-41.86 41.859 18.746 41.859 41.86-18.745 41.859-41.859 41.859" fill="#fff"/></svg>