<svg height="800" width="800" xmlns="http://www.w3.org/2000/svg" viewBox="0 0 512 512" xml:space="preserve"><path d="m497.879 222.264-.131-.122.106.106a48 48 0 0 0-7.69-6.324 7.4 7.4 0 0 1-2.896-.613 7.7 7.7 0 0 1-3.518-3.036 48.5 48.5 0 0 0-14.063-4.213c-4.197-.58-7.093-4.45-6.504-8.639.58-4.181 4.451-7.093 8.623-6.513 4.786.68 9.54 1.907 14.146 3.682.728-3.338 1.137-6.741 1.137-10.194a47.6 47.6 0 0 0-5.547-22.278v-.008c-4.311-8.181-10.594-14.554-17.99-18.931a48.1 48.1 0 0 0-21.28-6.595 63.9 63.9 0 0 1-5.023 20.233 7.66 7.66 0 0 1-10.055 4.008 7.66 7.66 0 0 1-4.008-10.055 49.3 49.3 0 0 0 4.025-19.397c0-.933-.041-1.857-.082-2.782a49.3 49.3 0 0 0-8.574-25.067 48.8 48.8 0 0 0-21.05-17.278 48.8 48.8 0 0 0-19.406-4.026c-12.411 0-24.437 4.778-33.503 13.212a64.3 64.3 0 0 1 2.643 18.195c0 4.221-3.428 7.641-7.65 7.641-4.23 0-7.658-3.42-7.658-7.641a49.1 49.1 0 0 0-3.22-17.54l.004.007c-3.526-9.228-9.773-17.14-17.753-22.735-7.977-5.596-17.634-8.868-28.135-8.868-9.138 0-17.639 2.47-24.948 6.79-5.846 3.452-10.898 8.108-14.858 13.589a64.15 64.15 0 0 1 12.309 37.887c0 4.222-3.424 7.641-7.65 7.641-4.234 0-7.658-3.42-7.658-7.641-.004-12.436-4.578-23.742-12.169-32.382l-.012-.008c-9.028-10.292-22.2-16.738-36.946-16.747-10.247.008-19.696 3.109-27.571 8.452-7.862 5.342-14.108 12.91-17.81 21.786a49.4 49.4 0 0 0-3.751 18.899 7.64 7.64 0 0 1-7.65 7.641c-4.226 0-7.653-3.42-7.653-7.641 0-6.21.904-12.223 2.54-17.917a48.9 48.9 0 0 0-18.408-3.617c-3.628 0-7.318.417-11.012 1.26-10.893 2.504-20.036 8.394-26.687 16.338a49.2 49.2 0 0 0-10.051 19.872c15.827.295 31.633 6.398 43.819 18.334a7.645 7.645 0 0 1 .114 10.815c-2.953 3.018-7.8 3.068-10.82.122-9.576-9.367-21.95-14.022-34.369-14.038-2.225 0-4.443.164-6.644.45l-.028.008h-.02c-10.428 1.424-20.453 6.169-28.422 14.284-9.372 9.58-14.015 21.926-14.018 34.353 0 7.126 1.542 14.26 4.618 20.838a49.1 49.1 0 0 0 10.132 14.284l.008.008a48.95 48.95 0 0 0 16.657 10.75c3.939 1.513 5.898 5.948 4.372 9.891s-5.956 5.907-9.895 4.377a64.2 64.2 0 0 1-21.86-14.096 66 66 0 0 1-7.572-8.893C3.13 250.465 0 260.373 0 270.452c.004 7.813 1.866 15.708 5.817 23.112 4.442 8.296 10.872 14.759 18.424 19.185 5.984 3.51 12.664 5.694 19.541 6.463l-.013-.442c0-4.05.377-8.026 1.088-11.871.769-4.156 4.762-6.897 8.914-6.137 4.16.762 6.905 4.77 6.14 8.926a49.6 49.6 0 0 0-.712 12.615c.09 1.252.221 2.446.41 3.584l.008.057.008.057c3.502 24.028 24.245 41.954 48.547 41.954 1.162 0 2.34-.05 3.523-.132h.012c10.775-.777 20.449-4.941 28.107-11.404a49.5 49.5 0 0 0 12.832-16.666 7.652 7.652 0 0 1 13.838 6.538c-3.261 6.897-7.723 13.114-13.11 18.432 3.01 9.229 8.659 17.189 16.023 23.088 8.463 6.766 19.106 10.742 30.593 10.742 1.162 0 2.331-.033 3.526-.123h.012a49 49 0 0 0 20.007-5.874c-.941-4.41-1.461-8.918-1.461-13.466 0-9.392 2.074-18.948 6.419-27.948 1.832-3.82 6.41-5.408 10.214-3.574 3.804 1.832 5.408 6.405 3.571 10.21-3.33 6.922-4.901 14.161-4.901 21.312 0 5.015.778 9.988 2.27 14.734l.004.008c3.919 12.501 12.779 23.398 25.533 29.542 6.893 3.329 14.133 4.9 21.288 4.9a49.37 49.37 0 0 0 31.215-11.167l.028-.016a49.1 49.1 0 0 0 13.037-16.608l.008-.025a48.9 48.9 0 0 0 4.851-19.218c.188-4.221 3.763-7.494 7.993-7.314a7.67 7.67 0 0 1 7.305 7.986 64.4 64.4 0 0 1-6.373 25.214l.008-.008a64.4 64.4 0 0 1-12.166 17.27c9.024 12.975 24.037 21.124 40.268 21.116a50.4 50.4 0 0 0 9.171-.859c11.806-2.234 21.77-8.468 28.855-17.083 7.078-8.614 11.192-19.562 11.192-31.122q-.002-.542-.017-1.047v-.048a47 47 0 0 0-.843-8.067c-1.219-6.504-3.705-12.403-7.1-17.639-4.942-4.36-10.456-10.038-15.634-16.37-5.506-6.749-10.611-14.12-14.031-21.557-2.25-4.982-3.854-9.998-3.886-15.307 0-2.348.352-4.778 1.211-7.126a17.9 17.9 0 0 1 4.14-6.455v.008a7.635 7.635 0 0 1 10.816 0c2.986 2.978 2.986 7.838 0 10.815-.295.311-.442.54-.589.925-.147.393-.27.974-.27 1.832-.033 1.922.762 5.196 2.496 8.934 1.71 3.739 4.254 7.936 7.241 12.084 5.931 8.312 13.629 16.477 19.422 21.435l.786.679.581.85a64.4 64.4 0 0 1 9.866 24.061v.008c.238 1.268.393 2.527.556 3.804.753.033 1.522.098 2.291.098 9.711-.008 19.471-2.879 28.062-8.918a48.8 48.8 0 0 0 15.552-17.9 49.3 49.3 0 0 0 5.351-22.35 48.8 48.8 0 0 0-4.892-21.263 66 66 0 0 1-9.18 2.282c-4.164.721-8.124-2.078-8.852-6.25a7.67 7.67 0 0 1 6.258-8.835c13.557-2.34 25.951-10.226 33.642-22.899A48.8 48.8 0 0 0 512 256.772c0-12.745-4.966-25.246-14.121-34.508m-350.691-58.413c7.322-8.64 17.033-14.784 27.464-18.801 10.452-4.017 21.68-5.956 32.439-5.956 10.476.008 20.522 1.816 29.076 5.743 3.833 1.768 5.51 6.316 3.742 10.154a7.66 7.66 0 0 1-10.16 3.746c-5.919-2.757-13.99-4.352-22.658-4.344-8.901 0-18.416 1.652-26.937 4.941-8.537 3.272-16.023 8.173-21.287 14.399v.008a7.657 7.657 0 0 1-10.783.892c-3.224-2.732-3.628-7.559-.896-10.782m174.198 180.952c-8.893.016-16.971-.99-24.347-2.7.204 2.103.343 4.434.343 6.93 0 4.998-.532 10.7-2.114 16.69-1.579 5.98-4.226 12.263-8.403 18.301a7.653 7.653 0 1 1-12.582-8.721c3.068-4.434 4.999-9.008 6.188-13.49 1.186-4.484 1.608-8.868 1.608-12.779.004-5.392-.806-9.867-1.391-12.387a78 78 0 0 1-10.414-5.702c-12.808-8.312-21.382-19.258-26.777-29.69-3.604-6.962-5.822-13.72-6.987-19.578-.671-3.338-1.002-6.39-1.002-9.146a7.653 7.653 0 0 1 7.657-7.657 7.65 7.65 0 0 1 7.65 7.657c-.013 2.242.466 5.956 1.681 10.178 1.206 4.246 3.133 9.081 5.919 13.94 5.584 9.736 14.46 19.504 28.139 25.845 9.142 4.238 20.518 6.995 34.832 7.003 4.226 0 7.654 3.428 7.654 7.649a7.656 7.656 0 0 1-7.654 7.657m53.882-55.886c-1.579 3.919-6.03 5.833-9.957 4.254-3.91-1.562-5.816-5.988-4.271-9.916v-.008l.05-.114c.048-.132.122-.36.228-.671.205-.606.491-1.571.778-2.766.589-2.414 1.17-5.825 1.17-9.572l-.025-.548c-10.48 3.567-20.248 5.195-29.235 5.195-13.581.017-25.321-3.706-34.885-9.359-9.58-5.653-17.025-13.139-22.588-20.723-6.324-8.631-14.628-16.355-24.13-21.836-9.515-5.482-20.167-8.737-31.482-8.745-9.932.024-20.457 2.495-31.473 8.525-10.435 5.743-17.172 13.384-21.513 21.762-4.315 8.37-6.119 17.549-6.115 25.886-.021 7.731 1.6 14.718 3.726 19.144a7.665 7.665 0 0 1-3.645 10.202c-3.816 1.8-8.382.18-10.194-3.648-3.313-7.06-5.171-15.929-5.191-25.697.004-9.695 1.935-20.281 6.644-30.418-9.487 2.152-18.302 3.109-26.348 3.1-4.34.008-8.426-.294-12.321-.769a7.5 7.5 0 0 1-1.448 2.856l-.004.007h-.008l-.09.115c-.082.115-.225.295-.413.532a85 85 0 0 0-1.628 2.242 104 104 0 0 0-5.416 8.59c-4.189 7.364-8.946 17.729-11.274 29.387a7.64 7.64 0 0 1-9.003 6.005 7.647 7.647 0 0 1-6.001-9.008c2.774-13.843 8.222-25.582 12.963-33.936a120 120 0 0 1 6.39-10.096c-6.242-1.873-11.646-4.164-16.051-6.496-10.072-5.351-15.336-10.726-15.762-11.159a7.65 7.65 0 0 1 10.987-10.643l.008-.008.074.074.471.45c.45.409 1.182 1.039 2.18 1.825 1.996 1.578 5.081 3.746 9.204 5.923 8.258 4.369 20.604 8.795 37.142 8.812 11.61 0 25.33-2.218 41.25-8.337a69.3 69.3 0 0 1 14.03-10.112c13.086-7.191 26.295-10.415 38.828-10.406 14.293 0 27.612 4.148 39.127 10.791 11.527 6.659 21.308 15.79 28.826 26.032 4.561 6.218 10.578 12.214 18.015 16.592 7.457 4.377 16.305 7.232 27.116 7.241 7.392 0 15.753-1.366 25.186-4.68-2.282-3.714-5.727-7.29-11.38-10.513a7.657 7.657 0 0 1 7.528-13.335c9.056 5.105 15.119 11.862 18.628 18.915 3.543 7.052 4.606 14.194 4.606 20.273-.032 10.599-3.108 18.241-3.304 18.789m-2.864-93.765c-17.884.008-33.527-4.819-46.183-12.125a98 98 0 0 1-7.249 8.975c-6.921 7.592-17.106 16.518-30.724 21.41-3.98 1.424-8.357-.654-9.781-4.638a7.65 7.65 0 0 1 4.634-9.777c10.035-3.559 18.436-10.611 24.27-16.984a82 82 0 0 0 6.316-7.772c-7.567-6.381-13.52-13.646-17.594-21.107-3.895-7.183-6.144-14.563-6.165-21.762 0-4.221 3.424-7.641 7.649-7.641 4.226 0 7.654 3.42 7.654 7.641-.02 3.87 1.338 9.032 4.299 14.44 2.949 5.424 7.428 11.085 13.262 16.141 11.682 10.128 28.577 17.892 49.611 17.892 4.222 0 7.65 3.428 7.65 7.657a7.647 7.647 0 0 1-7.649 7.65m60.328 107.763c-2.699 3.256-7.526 3.714-10.783 1.023a7.657 7.657 0 0 1-1.022-10.775c8.328-10.144 11.42-20.338 11.446-30.115.016-8.893-2.692-17.491-6.963-24.715-4.246-7.241-10.07-13.016-15.682-16.232-3.739-2.168-7.298-3.158-10.113-3.15a7.65 7.65 0 1 1 0-15.299c4.664 0 9.212 1.138 13.532 3.043 4.311 1.898 8.402 4.574 12.198 7.846 7.568 6.545 14.006 15.47 18.039 25.918 2.692 6.963 4.304 14.604 4.304 22.588.024 13.14-4.459 27.195-14.956 39.868" fill="#fff"/></svg>