<svg xmlns="http://www.w3.org/2000/svg" width="800" height="800" viewBox="0 0 419.931 419.931" xml:space="preserve"><path d="M282.895 352.367a18.6 18.6 0 0 1-5.579-5.25 19 19 0 0 1-1.771-3.125H28.282V100.276h335.624v159.138c7.165.647 13.177 5.353 15.701 11.797a18.7 18.7 0 0 1 7.344-2.213 18.7 18.7 0 0 1 5.236.293V39.561c0-12.996-10.571-23.569-23.566-23.569H23.568C10.573 15.992 0 26.565 0 39.561v309.146c0 12.996 10.573 23.568 23.568 23.568h257.179a18.52 18.52 0 0 1-1.302-13.066 18.6 18.6 0 0 1 3.45-6.842m55.13-296.798a8.703 8.703 0 0 1 8.702-8.703h8.702a8.7 8.7 0 0 1 8.702 8.703v9.863a8.7 8.7 0 0 1-8.702 8.702h-8.702a8.7 8.7 0 0 1-8.702-8.702zm-40.465 0a8.703 8.703 0 0 1 8.702-8.703h8.703a8.7 8.7 0 0 1 8.702 8.703v9.863a8.7 8.7 0 0 1-8.702 8.702h-8.703a8.7 8.7 0 0 1-8.702-8.702zm-40.466 0a8.703 8.703 0 0 1 8.702-8.703h8.702a8.7 8.7 0 0 1 8.703 8.703v9.863a8.7 8.7 0 0 1-8.703 8.702h-8.702a8.703 8.703 0 0 1-8.702-8.702z" fill="#fff"/><path d="m419.875 335.77-2.615-14.83a3.673 3.673 0 0 0-4.255-2.979l-13.188 2.324a49.5 49.5 0 0 0-6.005-10.38l8.614-10.268a3.67 3.67 0 0 0 .847-2.68 3.68 3.68 0 0 0-1.3-2.494l-11.534-9.68a3.68 3.68 0 0 0-5.176.453l-8.606 10.26a49.3 49.3 0 0 0-11.271-4.104V278a3.675 3.675 0 0 0-3.673-3.674h-15.06A3.675 3.675 0 0 0 342.98 278v13.392a49.3 49.3 0 0 0-11.271 4.104l-8.608-10.259a3.674 3.674 0 0 0-5.175-.453l-11.535 9.679a3.68 3.68 0 0 0-1.299 2.494c-.084.971.22 1.937.846 2.683l8.615 10.266a49.6 49.6 0 0 0-6.005 10.38l-13.188-2.325a3.677 3.677 0 0 0-4.255 2.979l-2.614 14.83a3.67 3.67 0 0 0 2.977 4.255l13.198 2.326a49.5 49.5 0 0 0 2.073 11.812l-11.6 6.695a3.67 3.67 0 0 0-1.345 5.016l7.529 13.041a3.67 3.67 0 0 0 3.18 1.836c.639 0 1.272-.166 1.836-.492l11.609-6.703a49.5 49.5 0 0 0 9.18 7.709l-4.584 12.593c-.332.916-.289 1.926.123 2.809s1.157 1.566 2.072 1.898l14.148 5.149a3.67 3.67 0 0 0 4.708-2.194l4.583-12.593a49.8 49.8 0 0 0 11.988 0l4.584 12.593a3.67 3.67 0 0 0 4.707 2.194l14.15-5.149a3.674 3.674 0 0 0 2.193-4.707l-4.584-12.591a49.8 49.8 0 0 0 9.18-7.709l11.609 6.703a3.68 3.68 0 0 0 2.787.367 3.67 3.67 0 0 0 2.229-1.711l7.529-13.043a3.68 3.68 0 0 0 .367-2.787 3.68 3.68 0 0 0-1.712-2.229l-11.598-6.693a49.5 49.5 0 0 0 2.071-11.812l13.198-2.327a3.66 3.66 0 0 0 2.37-1.511 3.6 3.6 0 0 0 .629-2.745m-65.691 23.566c-11.155 0-20.2-9.045-20.2-20.201s9.046-20.2 20.2-20.2c11.156 0 20.201 9.044 20.201 20.2s-9.045 20.201-20.201 20.201M164.695 235.373a12.3 12.3 0 0 0-7.096-11.119l-39.455-18.332 39.456-18.334a12.3 12.3 0 0 0 7.095-11.118v-.319c0-4.21-2.119-8.075-5.665-10.334a12.25 12.25 0 0 0-6.606-1.916c-1.778 0-3.563.391-5.16 1.133l-63.078 29.333a12.3 12.3 0 0 0-7.092 11.117v.877c0 4.743 2.782 9.104 7.093 11.118l63.084 29.336a12.27 12.27 0 0 0 11.759-.786 12.21 12.21 0 0 0 5.666-10.335zm62.237-101.361a12.3 12.3 0 0 0-9.901-5.03h-.314a12.22 12.22 0 0 0-11.679 8.516l-41.56 128.772a12.32 12.32 0 0 0 1.781 10.962 12.3 12.3 0 0 0 9.901 5.029h.315a12.22 12.22 0 0 0 11.672-8.516l41.555-128.762a12.29 12.29 0 0 0-1.77-10.971m81.069 60.354-63.079-29.333a12.3 12.3 0 0 0-5.152-1.131c-2.358 0-4.644.661-6.605 1.912a12.2 12.2 0 0 0-5.671 10.337v.319c0 4.746 2.783 9.111 7.097 11.123l39.454 18.33-39.455 18.331a12.3 12.3 0 0 0-7.096 11.119v.321c0 4.205 2.119 8.066 5.669 10.336a12.25 12.25 0 0 0 6.595 1.923c1.792 0 3.527-.383 5.169-1.141l63.082-29.336c4.307-2.009 7.088-6.371 7.088-11.114v-.877a12.31 12.31 0 0 0-7.096-11.119" fill="#fff"/></svg>