<svg width="400" height="400" viewBox="0 0 24 23" fill="none" xmlns="http://www.w3.org/2000/svg"><path d="M8 6.5h8M7.705 8.71l4.578 6.593M4.6 9h1.8c.56 0 .84 0 1.054-.109a1 1 0 0 0 .437-.437C8 8.24 8 7.96 8 7.4V5.6c0-.56 0-.84-.109-1.054a1 1 0 0 0-.437-.437C7.24 4 6.96 4 6.4 4H4.6c-.56 0-.84 0-1.054.109a1 1 0 0 0-.437.437C3 4.76 3 5.04 3 5.6v1.8c0 .56 0 .84.109 1.054a1 1 0 0 0 .437.437C3.76 9 4.04 9 4.6 9m9 11h1.8c.56 0 .84 0 1.054-.109a1 1 0 0 0 .437-.437C17 19.24 17 18.96 17 18.4v-1.8c0-.56 0-.84-.109-1.054a1 1 0 0 0-.437-.437C16.24 15 15.96 15 15.4 15h-1.8c-.56 0-.84 0-1.054.109a1 1 0 0 0-.437.437C12 15.76 12 16.04 12 16.6v1.8c0 .56 0 .84.109 1.054a1 1 0 0 0 .437.437C12.76 20 13.04 20 13.6 20m4-11h1.8c.56 0 .84 0 1.054-.109a1 1 0 0 0 .437-.437C21 8.24 21 7.96 21 7.4V5.6c0-.56 0-.84-.109-1.054a1 1 0 0 0-.437-.437C20.24 4 19.96 4 19.4 4h-1.8c-.56 0-.84 0-1.054.109a1 1 0 0 0-.437.437C16 4.76 16 5.04 16 5.6v1.8c0 .56 0 .84.109 1.054a1 1 0 0 0 .437.437C16.76 9 17.04 9 17.6 9" stroke="#fff" stroke-width="2" stroke-linecap="round" stroke-linejoin="round"/></svg>