<svg width="113" height="60" viewBox="0 0 113 60" fill="none" xmlns="http://www.w3.org/2000/svg">
<g id="Frame" clip-path="url(#clip0_1_180)">
<path id="Vector" d="M111.443 31.5362C112.272 30.6113 112.272 29.2117 111.443 28.2869C110.432 27.1612 86.3751 0.703613 56.0323 0.703613C25.6894 0.703613 1.63157 27.1606 0.621228 28.2869C-0.207076 29.2118 -0.207076 30.6114 0.621228 31.5362C1.63225 32.662 25.6894 59.1195 56.0323 59.1195C86.3751 59.1195 110.433 32.6625 111.443 31.5362ZM5.81635 29.9115C10.238 25.4938 23.6064 13.2995 40.5934 8.0483H40.5995C33.4737 13.0501 29.2347 21.2041 29.2347 29.9053C29.2347 38.6007 33.4675 46.754 40.5811 51.7622C23.619 46.5108 10.2444 34.3231 5.81635 29.9115ZM56.0323 51.2092C47.8345 51.2092 40.3674 46.5116 36.8172 39.1305C33.2665 31.7493 34.2714 22.9936 39.3934 16.5975L42.2437 18.8855C39.7222 22.0071 38.3518 25.9015 38.3701 29.9115C38.3762 37.895 43.7419 44.8806 51.4585 46.9441C59.1751 49.0068 67.3183 45.6358 71.3128 38.7233C75.3074 31.8108 74.1571 23.0787 68.5112 17.4318C62.8592 11.791 54.1193 10.6348 47.2006 14.6266L45.3734 11.4625C51.1106 8.1522 58.0659 7.70186 64.1862 10.2333C70.3132 12.7647 74.9055 18.0039 76.623 24.3993C78.3345 30.7946 76.9763 37.622 72.9443 42.8727C68.9064 48.1302 62.6575 51.2093 56.0306 51.2093L56.0323 51.2092ZM64.3153 36.1184L67.2387 38.3089C65.7831 40.244 63.8524 41.7713 61.6354 42.7449L60.1737 39.3983C61.8121 38.6802 63.2436 37.5484 64.3153 36.1184ZM56.0323 36.6052C53.322 36.6052 50.8797 34.9744 49.8443 32.4735C48.8028 29.9726 49.3814 27.0944 51.2938 25.1776C53.2124 23.2669 56.0931 22.6888 58.5963 23.7294C61.0995 24.7638 62.7317 27.204 62.7317 29.9118C62.7256 33.6054 59.7292 36.5991 56.0323 36.6052ZM66.179 31.9867C66.3191 31.2991 66.3861 30.6054 66.3861 29.9118C66.3861 25.7253 63.8646 21.9587 59.9971 20.3523C56.1235 18.752 51.6715 19.6403 48.7114 22.5976C45.7515 25.5549 44.8621 30.0031 46.464 33.8732C48.0718 37.7372 51.8419 40.2564 56.0321 40.2564V43.9075C50.1122 43.9014 44.8378 40.1835 42.8524 34.6095C40.8669 29.0418 42.6027 22.829 47.1826 19.0868C51.7688 15.3446 58.2125 14.8881 63.2794 17.9489C68.3406 21.0035 70.9413 26.9121 69.7596 32.7051L66.179 31.9867ZM71.4655 51.775C78.5913 46.7732 82.8304 38.6192 82.8304 29.918C82.8304 21.2226 78.5975 13.0693 71.4839 8.06108C88.446 13.3185 101.82 25.5065 106.248 29.918C101.827 34.3296 88.4588 46.5238 71.4655 51.775Z" fill="black"/>
<path id="Vector_2" d="M59.0773 29.9134C59.0773 33.9721 52.9869 33.9721 52.9869 29.9134C52.9869 25.8547 59.0773 25.8547 59.0773 29.9134Z" fill="black"/>
</g>
<defs>
<clipPath id="clip0_1_180">
<rect width="113" height="60" fill="black"/>
</clipPath>
</defs>
</svg>
