<svg xmlns="http://www.w3.org/2000/svg" viewBox="0 0 50 50" width="128" height="128"><path fill="#fff" d="M25 2C12.318 2 2 12.318 2 25s10.318 23 23 23c12.683 0 23-10.318 23-23S37.683 2 25 2zm9.973 27.535c2.237 1.986 2.702 2.695 2.778 2.816.927 1.47-1.028 1.649-1.028 1.649h-4.12s-1.003.011-1.86-.557c-1.397-.915-2.86-2.689-3.888-2.381-.863.258-.855 1.424-.855 2.421 0 .357-.307.517-1 .517h-1.288c-2.257 0-4.706-.76-7.149-3.313-3.456-3.609-6.487-10.879-6.487-10.879s-.179-.366.016-.589c.221-.25.822-.218.822-.218L14.909 19s.376.071.646.261c.223.156.347.454.347.454s.671 2.216 1.526 3.629c1.67 2.758 2.447 2.828 3.014 2.531.828-.43.558-3.362.558-3.362s.037-1.259-.395-1.82c-.333-.434-.97-.665-1.248-.701-.225-.029.151-.423.63-.648.64-.285 1.511-.358 3.013-.344 1.169.011 1.506.081 1.962.186 1.379.318 1.038 1.157 1.038 4.103 0 .944-.13 2.271.582 2.711.307.19 1.359.422 3.231-2.618.889-1.442 1.596-3.834 1.596-3.834s.146-.263.373-.393c.232-.133.225-.13.543-.13S35.832 19 36.532 19c.699 0 1.355-.008 1.468.402.162.589-.516 2.607-2.234 4.797-2.823 3.594-3.136 3.258-.793 5.336z"/></svg>